<svg width="55" height="64" viewBox="0 0 55 64" fill="none" xmlns="http://www.w3.org/2000/svg">
<g clip-path="url(#clip0)">
<path d="M50.5624 39.8805C50.5624 40.9375 50.1151 41.9547 49.2862 42.9051C49.1696 42.9818 49.0471 43.0575 48.9205 43.1293C46.2107 44.7253 42.2904 45.9965 37.6488 46.7696C34.4608 47.2986 30.938 47.5935 27.2259 47.5935C23.6623 47.5935 20.271 47.3186 17.1845 46.8314C7.96113 45.3609 1.49438 41.9348 1.49438 37.9387C1.49438 37.8013 1.49937 37.6638 1.52029 37.5323C2.02838 36.2152 3.23386 34.9848 4.98729 33.8969C7.98206 32.4583 12.0438 31.3544 16.7213 30.7447C17.6418 30.6232 18.5873 30.5265 19.5537 30.4448C19.8486 30.4189 20.1484 30.399 20.4483 30.3791C21.9377 30.2725 23.468 30.2217 25.0291 30.2217C26.9001 30.2217 28.7303 30.2984 30.4847 30.4458C31.3843 30.5166 32.259 30.6082 33.1188 30.7208C33.2563 30.7358 33.3938 30.7567 33.5302 30.7766C43.455 32.0917 50.5624 35.6712 50.5624 39.8805Z" fill="#FFD10D"/>
<path d="M52.9624 37.9387C52.9624 39.7639 51.6204 41.4625 49.2862 42.9061C49.1696 42.9828 49.0471 43.0585 48.9205 43.1303C46.2107 44.7263 42.2904 45.9975 37.6488 46.7706C34.4608 47.2996 30.938 47.5945 27.2259 47.5945C23.6623 47.5945 20.271 47.3196 17.1845 46.8324C7.96113 45.3609 1.49438 41.9347 1.49438 37.9387C1.49438 37.8012 1.49937 37.6638 1.52029 37.5323C1.7036 35.8286 3.06051 34.2426 5.29314 32.8797C8.03884 31.207 12.0956 29.875 16.9305 29.0819C17.8461 28.9295 18.7915 28.802 19.7569 28.6904C19.8635 28.9146 19.9751 29.1636 20.0877 29.4276C20.2092 29.7225 20.3317 30.0374 20.4483 30.3781C20.4892 30.4946 20.525 30.6072 20.5649 30.7288C20.6207 30.9121 20.6814 31.1004 20.7322 31.2926C20.7372 31.3076 20.7422 31.3285 20.7522 31.3484C20.8588 31.745 20.9604 32.1674 21.0421 32.6097C21.0879 32.8389 21.1288 33.072 21.1636 33.3111C21.1836 33.4535 21.2045 33.596 21.2194 33.7385C21.2294 33.8351 21.2453 33.9367 21.2553 34.0384C21.3011 34.5265 21.326 35.0346 21.326 35.5587H33.0202C33.0202 35.5587 33.0052 35.1721 33.0202 34.5574C33.0251 34.3332 33.0351 34.0742 33.056 33.7953C33.066 33.6329 33.0819 33.4645 33.0969 33.2872C33.1019 33.2164 33.1068 33.1497 33.1168 33.079C33.1268 32.9773 33.1367 32.8658 33.1527 32.7582C33.1626 32.6516 33.1786 32.54 33.1935 32.4274C33.1935 32.4174 33.1985 32.4075 33.1985 32.3915C33.2184 32.27 33.2393 32.1425 33.2593 32.0149C33.2692 31.9283 33.2852 31.8366 33.3051 31.7509C33.331 31.6085 33.3609 31.466 33.3918 31.3186C33.4017 31.2677 33.4117 31.2219 33.4227 31.1761C33.4535 31.0436 33.4884 30.9071 33.5293 30.7746C33.585 30.5405 33.6508 30.3073 33.7275 30.0782C33.7733 29.9507 33.8192 29.8242 33.865 29.7016C34.0025 29.336 34.1649 28.9793 34.3581 28.6545C45.1019 29.8142 52.9624 33.5303 52.9624 37.9387Z" stroke="#5D3EBC" stroke-width="3" stroke-miterlimit="10"/>
<path d="M17.1845 46.8304C17.0371 47.1661 16.9046 47.5069 16.798 47.8625C16.783 47.8884 16.778 47.9183 16.7671 47.9442C16.4264 49.0072 16.243 50.146 16.243 51.3206C16.243 57.4984 21.2513 62.5056 27.4281 62.5056C33.6049 62.5056 38.6132 57.4974 38.6132 51.3206C38.6132 50.2277 38.4557 49.1696 38.1559 48.1684C38.0851 47.9044 37.9935 47.6394 37.8968 47.3803C37.8201 47.1721 37.7394 46.9689 37.6478 46.7706" stroke="#5D3EBC" stroke-width="3" stroke-miterlimit="10"/>
<path d="M29.4834 30.2206L32.534 30.5365L32.0199 35.3046H29.0132L29.4834 30.2206Z" fill="white"/>
<path d="M19.2688 28.1813C18.7955 27.21 18.3941 26.6411 18.3432 26.5694C18.3383 26.5644 18.3383 26.5644 18.3383 26.5644C14.9161 23.9611 12.7054 19.8476 12.7054 15.2209C12.7054 8.28592 17.6728 2.50559 24.2411 1.24432C32.015 1.34594 38.2835 7.68119 38.2835 15.475C38.2835 20.5489 35.6294 25.0032 31.6284 27.5198C31.3794 27.7788 31.1662 28.0737 30.9779 28.3995C30.8812 28.5669 30.7896 28.7402 30.7029 28.9185C29.6658 31.1303 29.62 34.1549 29.6349 35.0505C29.6349 35.2129 29.6399 35.3046 29.6399 35.3046H20.5848L19.2688 28.1813Z" fill="#D1C9F2"/>
<path d="M41.6648 15.73C41.6648 20.804 39.0107 25.2583 35.0097 27.7748C34.7606 28.0339 34.5474 28.3288 34.3592 28.6545C34.1659 28.9803 34.0035 29.336 33.866 29.7016C33.8152 29.8291 33.7694 29.9507 33.7285 30.0782C33.607 30.4388 33.5044 30.8055 33.4237 31.1761C33.4137 31.2219 33.4037 31.2677 33.3928 31.3185C33.3569 31.461 33.332 31.6085 33.3061 31.7509C33.2862 31.8376 33.2702 31.9293 33.2603 32.0149C33.2344 32.1425 33.2194 32.269 33.1995 32.3915C33.1995 32.4065 33.1945 32.4174 33.1945 32.4274C33.1796 32.539 33.1636 32.6515 33.1537 32.7581C33.1387 32.8647 33.1278 32.9713 33.1178 33.0789C33.1078 33.1497 33.1029 33.2164 33.0979 33.2872C33.078 33.4655 33.067 33.6329 33.057 33.7953C33.0371 34.0752 33.0262 34.3342 33.0212 34.5574C33.0062 35.1731 33.0212 35.5586 33.0212 35.5586H21.328C21.328 35.0346 21.3021 34.5265 21.2573 34.0383C21.2423 33.9367 21.2314 33.8351 21.2214 33.7385C21.2065 33.596 21.1856 33.4535 21.1656 33.3111C21.1298 33.072 21.0889 32.8378 21.0441 32.6097C20.9624 32.1624 20.8608 31.74 20.7542 31.3484C20.7442 31.3285 20.7392 31.3076 20.7342 31.2926C20.6834 31.0994 20.6276 30.9111 20.5669 30.7288C20.4144 30.2505 20.2521 29.8182 20.0887 29.4276C19.9771 29.1636 19.8645 28.9146 19.7579 28.6904C19.2847 27.719 18.8832 27.1502 18.8324 27.0784C20.0887 29.4276 18.8274 27.0735 18.8274 27.0735C15.4052 24.4702 13.1945 20.3567 13.1945 15.73C13.1945 8.79501 18.1619 3.01468 24.7303 1.75341C25.605 1.58006 26.5046 1.49438 27.4301 1.49438C35.2897 1.49438 41.6648 7.87047 41.6648 15.73Z" stroke="#5D3EBC" stroke-width="3" stroke-miterlimit="10"/>
<path d="M18.7955 14.683C18.7886 14.5694 18.7866 14.4558 18.7866 14.3423C18.7866 11.1781 21.0989 8.55396 24.1245 8.06281" stroke="#5D3EBC" stroke-width="3" stroke-miterlimit="10"/>
</g>
<defs>
<clipPath id="clip0">
<rect width="54.4568" height="64" fill="white"/>
</clipPath>
</defs>
</svg>
