<svg width="80" height="64" viewBox="0 0 80 64" fill="none" xmlns="http://www.w3.org/2000/svg">
<g clip-path="url(#clip0)">
<path d="M33.4867 11.2415C30.1748 14.7754 28.1501 19.5251 28.1501 24.7541C28.1501 29.9831 30.1748 34.7328 33.4867 38.2668C34.4932 39.3388 35.6132 40.2973 36.8348 41.1297C39.9912 43.2679 43.8068 44.5199 47.9159 44.5199C58.8346 44.5199 67.6816 35.6728 67.6816 24.7541C67.6816 13.8354 58.8346 4.9874 47.9159 4.9874C43.8068 4.9874 39.9912 6.23938 36.8348 8.37754" stroke="#FFD00D" stroke-width="6" stroke-miterlimit="10"/>
<path d="M38.0819 38.4595C41.4349 34.8825 43.484 30.0751 43.484 24.7825C43.484 19.4899 41.4349 14.6825 38.0819 11.1055C37.0637 10.0208 35.9301 9.05048 34.6927 8.20735C31.4982 6.04278 27.6356 4.77612 23.4767 4.77612C12.425 4.77612 3.47034 13.7308 3.47034 24.7825C3.47034 35.8342 12.425 44.7888 23.4767 44.7888C27.6356 44.7888 31.4972 43.5222 34.6927 41.3576" stroke="#D0C8F1" stroke-width="6" stroke-miterlimit="10"/>
<path d="M39.4591 39.5051C43.1388 35.5789 45.3884 30.302 45.3884 24.492C45.3884 18.682 43.1388 13.4051 39.4591 9.47892C38.3411 8.28758 37.0969 7.22339 35.7393 6.29809C32.2328 3.92225 27.9936 2.53137 23.4278 2.53137C11.2962 2.53137 1.46716 12.3604 1.46716 24.492C1.46716 36.6236 11.2962 46.4526 23.4278 46.4526C27.9927 46.4526 32.2318 45.0618 35.7393 42.6859" stroke="#5D3EBB" stroke-width="3" stroke-miterlimit="10"/>
<path d="M35.7393 36.6363C38.8272 33.5151 40.7306 29.23 40.7306 24.491C40.7306 19.7521 38.8272 15.4669 35.7393 12.3458C34.6477 11.2209 33.3899 10.2565 32.0195 9.47794C29.4911 8.02055 26.5558 7.18915 23.4288 7.18915C13.8726 7.18915 6.12689 14.9348 6.12689 24.491C6.12689 34.0472 13.8726 41.7929 23.4288 41.7929C26.5568 41.7929 29.4911 40.9615 32.0195 39.5041" stroke="#5D3EBB" stroke-width="3" stroke-miterlimit="10"/>
<path d="M32.0186 9.47892C28.3389 13.4051 26.0892 18.682 26.0892 24.492C26.0892 30.302 28.3389 35.5789 32.0186 39.5051C33.1365 40.6964 34.3807 41.7606 35.7383 42.6859C39.2458 45.0618 43.484 46.4526 48.0499 46.4526C60.1814 46.4526 70.0105 36.6236 70.0105 24.492C70.0105 12.3604 60.1814 2.53137 48.0499 2.53137C43.485 2.53137 39.2458 3.92225 35.7383 6.29809" stroke="#5D3EBB" stroke-width="3" stroke-miterlimit="10"/>
<path d="M35.7393 12.3467C32.6514 15.4679 30.748 19.753 30.748 24.492C30.748 29.231 32.6514 33.5161 35.7393 36.6372C36.8309 37.7621 38.0887 38.7265 39.4591 39.5051C41.9875 40.9625 44.9228 41.7939 48.0499 41.7939C57.606 41.7939 65.3517 34.0482 65.3517 24.492C65.3517 14.9358 57.606 7.18915 48.0499 7.18915C44.9218 7.18915 41.9875 8.02055 39.4591 9.47794" stroke="#5D3EBB" stroke-width="3" stroke-miterlimit="10"/>
<path d="M23.0913 46.0486V64" stroke="#5D3EBB" stroke-width="3" stroke-miterlimit="10"/>
<path d="M17.787 58.2878H28.3946" stroke="#5D3EBB" stroke-width="3" stroke-miterlimit="10"/>
<path d="M79.3995 7.95696L77.0686 7.94914L77.0862 2.34845L71.4846 2.33085L71.4924 0L79.4249 0.0244529L79.3995 7.95696Z" fill="#5D3EBB"/>
<path d="M76.1459 1.40407L65.3112 12.1716L67.1893 14.0614L78.024 3.29391L76.1459 1.40407Z" fill="#5D3EBB"/>
</g>
<defs>
<clipPath id="clip0">
<rect width="79.4249" height="64" fill="white"/>
</clipPath>
</defs>
</svg>
