<svg width="42" height="64" viewBox="0 0 42 64" fill="none" xmlns="http://www.w3.org/2000/svg">
<g clip-path="url(#clip0)">
<path d="M20.9594 17.0049V63.1144H7.44146C4.75157 63.1144 2.56352 61.1153 2.49504 58.6179C2.49149 58.5777 2.49149 58.5334 2.49149 58.4933V34.9993H2.35098C1.54389 34.9993 0.88559 34.3853 0.88559 33.6301V29.9968C0.88559 29.2381 1.54389 28.6276 2.35098 28.6276H2.49149V21.626C2.49149 19.0766 4.70788 17.0049 7.44146 17.0049H20.9594Z" fill="#D1C9F2"/>
<path d="M22.5653 42.2346H10.521V43.439H22.5653V42.2346Z" fill="white"/>
<path d="M20.9594 4.90039V5.00903H15.3748C15.21 5.00903 15.0495 4.97714 14.9048 4.91692H14.5594C14.5193 4.91692 14.4832 4.91279 14.4472 4.90098H20.9594V4.90039Z" fill="#D1C9F2"/>
<path d="M28.6713 53.476H10.0416C9.64253 53.476 9.31958 53.1525 9.31958 52.754V44.1612C9.31958 43.7621 9.64312 43.4391 10.0416 43.4391H28.6707C29.0698 43.4391 29.3928 43.7627 29.3928 44.1612V52.7534C29.3934 53.1525 29.0698 53.476 28.6713 53.476Z" fill="#FFD10D"/>
<path d="M25.5999 2.88196V5.11821C25.5999 5.38622 25.4267 5.60009 25.2168 5.60009H14.7825C14.7464 5.60009 14.714 5.59541 14.6815 5.58204C14.519 5.52724 14.3999 5.34144 14.3999 5.11821V2.88196C14.3999 2.61863 14.5731 2.40009 14.783 2.40009H25.2174C25.4267 2.40009 25.5999 2.61796 25.5999 2.88196Z" fill="#FFD10D"/>
<path d="M39.4273 21.626V29.0007H2.49149V21.626C2.49149 19.0766 4.70787 17.0049 7.44145 17.0049H34.4767C37.2109 17.0049 39.4273 19.0766 39.4273 21.626Z" stroke="#5D3EBC" stroke-width="3" stroke-miterlimit="10"/>
<path d="M2.49997 59.2328V36.4999H39.5V59.2334L39.5 59.2398L39.4978 59.2596L39.4961 59.3188C39.4497 60.9303 37.9026 62.4999 35.6387 62.4999H6.36058C4.0967 62.4999 2.54958 60.9303 2.50318 59.3188L2.50184 59.2721L2.5 59.2519L2.49997 59.2328Z" stroke="#5D3EBC" stroke-width="3" stroke-miterlimit="10"/>
<path d="M28 2.20337V3.80039C28 4.46257 27.3914 4.99988 26.6369 4.99988H14.3631C14.1821 4.99988 14.0056 4.96895 13.8466 4.91052C13.8337 4.90651 13.82 4.89906 13.8071 4.89505C13.3309 4.70831 13 4.28729 13 3.80039V2.20337C13 1.53718 13.6085 0.999878 14.3631 0.999878H26.6369C27.3914 0.999878 28 1.53718 28 2.20337Z" stroke="#5D3EBC" stroke-width="3" stroke-miterlimit="10"/>
<path d="M15.3388 5.00903C15.3388 5.00903 16.039 12.5066 11.6741 17.0049" stroke="#5D3EBC" stroke-width="3" stroke-miterlimit="10"/>
<path d="M26.1685 5.00903C26.1685 5.00903 25.4683 12.5066 29.8332 17.0049" stroke="#5D3EBC" stroke-width="3" stroke-miterlimit="10"/>
<path d="M15.3387 9.88275H18.1491" stroke="#5D3EBC" stroke-width="3" stroke-miterlimit="10"/>
<path d="M19.3535 9.88275H25.7771" stroke="#5D3EBC" stroke-width="3" stroke-miterlimit="10"/>
<path d="M2.49155 57.6161H13.3314" stroke="#5D3EBC" stroke-width="3" stroke-miterlimit="10"/>
<path d="M2.49149 22.2537H11.7254" stroke="#5D3EBC" stroke-width="3" stroke-miterlimit="10"/>
<path d="M15.3387 22.2537H39.0258" stroke="#5D3EBC" stroke-width="3" stroke-miterlimit="10"/>
<path d="M15.7402 57.6161H39.4273" stroke="#5D3EBC" stroke-width="3" stroke-miterlimit="10"/>
<path d="M2.49149 34.9992H2.35098C1.54389 34.9992 0.88559 34.3852 0.88559 33.6301V29.9967C0.88559 29.238 1.54389 28.6276 2.35098 28.6276H2.49149" stroke="#5D3EBC" stroke-width="3" stroke-miterlimit="10"/>
<path d="M39.4273 34.9992H39.615C40.3979 34.9992 41.0332 34.4065 41.0332 33.6749V29.9241C41.0332 29.2073 40.4109 28.6258 39.6428 28.6258H39.4273" stroke="#5D3EBC" stroke-width="3" stroke-miterlimit="10"/>
<path d="M30.1597 52.9931H11.7591C10.854 52.9931 10.1195 52.2592 10.1195 51.3535V42.6362C10.1195 41.7311 10.8534 40.9966 11.7591 40.9966H30.1602C31.0653 40.9966 31.7998 41.7305 31.7998 42.6362V51.3535C31.7992 52.2592 31.0653 52.9931 30.1597 52.9931Z" stroke="#5D3EBC" stroke-width="3" stroke-miterlimit="10"/>
</g>
<defs>
<clipPath id="clip0">
<rect width="41.9188" height="64" fill="white"/>
</clipPath>
</defs>
</svg>
