<svg width="32" height="64" viewBox="0 0 32 64" fill="none" xmlns="http://www.w3.org/2000/svg">
<g clip-path="url(#clip0)">
<path d="M26.4 16.8769V45.3454C26.4 46.3705 25.6435 47.2 24.7086 47.2H2.53488C1.98179 46.8948 1.59998 46.2688 1.59998 45.5411V17.0725C1.59998 8.96939 7.59123 2.40002 14.9813 2.40002C15.0598 2.40002 15.1383 2.40002 15.2168 2.40394C18.0322 2.91258 20.5515 4.38374 22.4819 6.5005C24.9013 9.15719 26.4 12.8234 26.4 16.8769Z" fill="#D1C9F2"/>
<path d="M17.6 48V59.712C17.6 60.7949 17.0317 61.751 16.1523 62.3462C15.949 62.3808 15.7416 62.4 15.5259 62.4C13.5804 62.4 12 60.937 12 59.136V48H17.6Z" fill="#FFD10D"/>
<path d="M16.0477 2.11201L16.0691 2.11299L16.0905 2.11335C19.7895 2.17561 23.1247 3.69719 25.5635 6.13203C28.0492 8.6219 29.5857 12.0525 29.5857 15.8476V45.4136C29.5857 45.6498 29.3958 45.8397 29.1596 45.8397H2.53559C2.46687 45.8397 2.40396 45.824 2.34676 45.7957C2.20039 45.7213 2.1095 45.5759 2.1095 45.4136V15.8476C2.1095 8.26053 8.26053 2.1095 15.8476 2.1095C15.9427 2.1095 15.998 2.10975 16.0477 2.11201Z" stroke="#5D3EBC" stroke-width="3" stroke-miterlimit="10"/>
<path d="M12.7 59.364V47.0999H19.3V59.364C19.3 60.2524 18.4176 61.3978 16.6404 61.6518L16.6348 61.6526C16.4251 61.6834 16.2157 61.6999 16 61.6999C13.8486 61.6999 12.7 60.3558 12.7 59.364Z" stroke="#5D3EBC" stroke-width="3" stroke-miterlimit="10"/>
<path d="M12.5968 15.0349V37.3841" stroke="#5D3EBC" stroke-width="3" stroke-miterlimit="10"/>
<path d="M19.5048 28.2412V37.5872" stroke="#5D3EBC" stroke-width="3" stroke-miterlimit="10"/>
<path d="M19.5048 14.4254V26.2095" stroke="#5D3EBC" stroke-width="3" stroke-miterlimit="10"/>
</g>
<defs>
<clipPath id="clip0">
<rect width="31.6952" height="64" fill="white"/>
</clipPath>
</defs>
</svg>
