<svg width="134" height="121" viewBox="0 0 134 121" fill="none" xmlns="http://www.w3.org/2000/svg">
<path d="M127.099 33.774V29.6079H104.598V33.774C103.326 34.2774 102.423 35.5119 102.423 36.9619V57.7929H129.274V36.9619C129.274 35.511 128.371 34.2774 127.099 33.774Z" fill="#BDD8F4"/>
<path d="M129.274 37.6434H110.925V53.8468H129.274V37.6434Z" fill="#85BEED"/>
<path d="M127.627 27.5797H104.07C103.16 27.5797 102.423 28.3169 102.423 29.2252C102.423 30.1343 103.161 30.8707 104.07 30.8707H127.627C128.537 30.8707 129.274 30.1334 129.274 29.2252C129.274 28.3169 128.536 27.5797 127.627 27.5797Z" fill="white"/>
<path d="M65.2142 46.0872C65.2142 46.0872 70.3161 35.444 77.6481 32.2272C81.6136 21.6495 85.7038 17.1205 90.9323 16.0779C95.7068 9.22468 100.813 7.43264 105.725 7.37855C110.635 7.32445 115.119 6.58635 115.796 11.3631C116.471 16.1398 110.449 25.5049 110.449 25.5049C110.449 25.5049 110.207 34.4093 103.482 39.918C103.482 39.918 103.263 45.7391 98.0958 52.3532L65.2142 46.0872Z" fill="#845025"/>
<path d="M77.9114 37.9279C77.4003 37.7447 77.5326 37.121 78.0745 37.1546C81.9351 37.3934 89.6431 38.1775 95.3093 40.7293C95.7848 40.9435 95.6103 41.5712 95.09 41.5348C87.4331 40.9984 81.1072 39.0739 77.9114 37.9279Z" fill="#F9C269"/>
<path d="M86.3846 27.5652C85.8631 27.3875 85.9869 26.7374 86.5369 26.769C90.2259 26.9806 97.123 27.7068 102.492 30.1948C102.947 30.4057 102.803 31.0097 102.302 30.9937C96.684 30.8146 89.9309 28.7736 86.3846 27.5652Z" fill="#F9C269"/>
<path d="M95.285 19.7469C94.7465 19.616 94.8166 18.9817 95.3708 18.9843C98.081 18.9967 102.385 19.307 106.105 20.8695C106.577 21.0679 106.428 21.6595 105.917 21.6211C102.348 21.3534 97.9992 20.4066 95.285 19.7469Z" fill="#F9C269"/>
<path d="M101.806 12.9371C101.273 12.8476 101.284 12.2167 101.821 12.1584C104.23 11.897 108.087 11.7434 111.381 12.8148C111.818 12.9567 111.78 13.4939 111.325 13.5541C108.544 13.9226 104.383 13.3701 101.806 12.9371Z" fill="#F9C269"/>
<path d="M47.0605 51.2764C47.0605 51.2764 50.036 38.8996 57.0416 33.8506C58.8336 21.7993 62.1234 16.0994 67.4034 13.8197C70.8905 5.51383 75.871 2.47068 81.0384 1.30507C86.2057 0.139455 90.7682 -1.65172 92.5602 3.23409C94.3522 8.11989 90.1162 19.3564 90.1162 19.3564C90.1162 19.3564 91.8732 28.8017 86.0259 36.1304C86.0259 36.1304 87.11 42.3188 83.1551 50.4615L47.0605 51.2764Z" fill="#AC6933"/>
<path d="M58.4235 39.7795C57.8856 39.7055 57.8839 39.0617 58.4206 38.9798C62.5106 38.3557 71.0692 37.383 77.7436 38.8648C78.2527 38.9778 78.2125 39.6332 77.6963 39.7077C69.2931 40.9209 62.0157 40.2734 58.4235 39.7795Z" fill="#F9C269"/>
<path d="M64.9941 26.938C64.4471 26.8721 64.4332 26.2068 64.9773 26.1208C68.8851 25.5033 76.5565 24.6506 82.9179 26.13C83.4064 26.2436 83.3914 26.8688 82.8983 26.9605C76.808 28.0936 68.9774 27.4177 64.9941 26.938Z" fill="#F9C269"/>
<path d="M72.6131 16.701C72.0592 16.6847 71.9881 16.0441 72.5299 15.9277C75.4033 15.3104 80.2096 14.6039 84.6329 15.4758C85.1357 15.5748 85.1117 16.191 84.6044 16.2628C80.668 16.8199 75.6451 16.79 72.6131 16.701Z" fill="#F9C269"/>
<path d="M77.9736 8.06074C77.4337 8.08339 77.3097 7.45984 77.8219 7.28766C80.3067 6.45234 84.4993 5.3462 88.3355 5.77253C88.7917 5.82323 88.8676 6.36138 88.4367 6.51945C85.529 7.58611 80.8033 7.942 77.9736 8.06074Z" fill="#F9C269"/>
<path d="M15.7343 53.7914L21.5222 10.1272H52.9863L60.3734 53.7914H15.7343Z" fill="#864710"/>
<path d="M21.5222 6.88799H54.8796L55.831 15.0438L21.0483 13.702L21.5222 6.88799Z" fill="#864710"/>
<path d="M21.0482 13.7016L27.2019 53.7914H15.7343L21.0482 13.7016Z" fill="#462204"/>
<path d="M54.5304 19.2566L20.871 15.0434L21.0482 13.7016L53.8181 15.0434L54.5304 19.2566Z" fill="#462204"/>
<path d="M52.9339 35.2035H31.9416L30.7911 26.4431H51.7826L52.9339 35.2035Z" fill="white"/>
<path d="M133.103 46.2531H12.7376V120.617H133.103V46.2531Z" fill="#FCE8E8"/>
<path d="M133.103 46.2531H111.545V120.617H133.103V46.2531Z" fill="#FCD4D4"/>
<path d="M98.8073 71.8609H0L12.7377 46.2531H111.545L98.8073 71.8609Z" fill="white"/>
<path d="M44.3546 85.372C44.3546 83.7021 45.2615 82.8349 46.4006 82.8349C47.5213 82.8349 48.3418 83.4927 48.3418 85.2429C48.3418 87.0419 47.4515 87.6509 46.4006 87.6509C45.2405 87.6509 44.3546 86.9372 44.3546 85.372ZM50.9683 85.817C50.9683 82.7529 49.576 80.6564 46.4137 80.6564C43.3229 80.6564 41.7011 82.766 41.7011 85.3336C41.7011 87.712 43.1928 89.9315 45.8934 89.9315C47.2961 89.9315 48.1096 89.3505 48.3087 89.1803V90.3625C48.3087 91.7288 47.7631 92.6397 46.3473 92.6397C45.6656 92.6397 45.162 92.4591 44.695 92.2409C44.2795 92.0473 43.9705 91.823 43.5559 91.823C42.5041 91.823 42.2126 93.0881 42.2178 93.0942C43.0043 94.0871 44.8155 94.8165 46.3351 94.8165C49.322 94.8165 50.9683 93.1195 50.9683 89.7544C50.9683 89.7553 50.9683 86.3658 50.9683 85.817Z" fill="#5D3EBC"/>
<path d="M55.0883 84.8494C55.0883 84.8529 55.6923 85.0684 57.2766 85.0684C58.3676 85.0684 58.969 84.6496 58.969 83.9953C58.969 83.4421 58.4261 82.8375 57.2835 82.8375C55.8416 82.8384 55.0883 83.9107 55.0883 84.8494ZM61.125 89.2388C60.6554 89.8862 58.8023 90.818 57.1142 90.818C54.1142 90.818 52.3807 88.7528 52.3807 85.9601C52.3807 82.2975 54.8352 80.6564 57.1832 80.6564C59.6516 80.6564 61.3432 81.9755 61.3432 83.9866C61.3432 85.3999 60.5437 86.7662 57.2268 86.7662C55.6827 86.7662 55.0089 86.5752 55.0089 86.5769C55.0089 88.3323 56.4526 88.6586 57.2905 88.6586C57.8911 88.6586 58.358 88.5199 58.7517 88.3611C59.1288 88.2093 59.4701 88.0357 59.9301 88.0357C60.8064 88.0348 61.1285 89.2344 61.125 89.2388Z" fill="#5D3EBC"/>
<path d="M68.9039 89.1743C68.9039 90.1732 67.9848 90.8328 66.7235 90.8328C64.1669 90.8328 62.8314 89.0443 62.8314 86.3152L62.8532 79.6391C62.8532 78.7902 63.0854 78.183 63.5498 77.8148C64.0141 77.4466 64.6897 77.2625 65.5757 77.2625C65.5617 77.3619 65.546 77.4963 65.5321 77.6656C65.5172 77.8217 65.5067 78.0294 65.4989 78.292C65.491 78.5538 65.4875 78.8966 65.4875 79.3206L65.5094 80.6573H68.4273C68.4273 81.2942 68.2458 81.8028 67.8827 82.185C67.5196 82.5662 67.0046 82.7573 66.3368 82.7573H65.5094L65.4875 85.7699C65.4875 86.364 65.5635 86.9303 65.6726 87.3334C65.7817 87.7365 66.3674 88.6743 67.51 88.6743C68.1856 88.6743 68.5941 88.5792 68.8201 88.5225C68.8559 88.6368 68.9039 88.82 68.9039 89.1743Z" fill="#5D3EBC"/>
<path d="M74.5697 88.7068C74.3558 88.7643 74.2065 88.8019 73.9141 88.8019C73.3494 88.8019 72.9863 88.4014 72.9863 87.7435V82.9258C72.9863 82.5018 72.9898 82.1589 72.9976 81.8972C73.0046 81.6354 73.016 81.4269 73.0299 81.2716C73.0448 81.1023 73.0587 80.968 73.0736 80.8685C72.1728 80.8685 71.4911 81.0526 71.0267 81.4208C70.5615 81.789 70.3302 82.3962 70.3302 83.2451L70.3083 88.1519C70.3083 89.9073 71.4631 90.8748 72.9217 90.8181C73.84 90.7824 74.636 90.3557 74.636 89.4134C74.6343 89.02 74.5697 88.7068 74.5697 88.7068ZM72.9374 79.3007C72.6249 79.8085 72.1929 80.0624 71.6421 80.0624C71.4038 80.0624 71.1803 80.0118 70.9717 79.9106C70.7483 79.7797 70.5772 79.6096 70.4576 79.3993C70.3389 79.1899 70.2795 78.9604 70.2795 78.7144C70.2795 78.4387 70.3459 78.1918 70.4803 77.9746C70.6147 77.7285 70.7998 77.5357 71.0389 77.3978C71.2763 77.26 71.5225 77.1911 71.7756 77.1911C71.9991 77.1911 72.2147 77.2487 72.4233 77.3647C72.6616 77.4816 72.8396 77.6474 72.9592 77.8655C73.0779 78.0827 73.1373 78.3148 73.1373 78.5617C73.1382 78.8217 73.071 79.0686 72.9374 79.3007Z" fill="#5D3EBC"/>
<path d="M75.7463 85.4936C75.7463 84.5461 75.8877 83.7722 76.1705 83.1711C76.4542 82.5699 76.8199 82.0997 77.2703 81.7603C77.7198 81.4209 78.2252 81.1914 78.7838 81.071C79.3425 80.9506 79.8976 80.8904 80.4501 80.8904H81.5177C81.6276 81.1216 81.673 81.5134 81.673 81.7228C81.673 82.6205 80.9258 82.9372 80.0757 83.007C78.563 83.1309 78.4251 84.2023 78.4251 85.0373V88.5707C78.4251 88.9948 78.4286 89.3385 78.4364 89.5994C78.4434 89.8611 78.4539 90.0696 78.4687 90.2258C78.4827 90.3951 78.4975 90.6385 78.5124 90.724C77.6264 90.724 76.9604 90.7048 76.387 90.2808C75.8615 89.8917 75.7463 89.1012 75.7463 88.2523V85.4936Z" fill="#5D3EBC"/>
</svg>
