<svg width="45" height="64" viewBox="0 0 45 64" fill="none" xmlns="http://www.w3.org/2000/svg">
<g clip-path="url(#clip0)">
<path d="M34.3695 62.442V58.9959L7.94816 58.9959V62.442L34.3695 62.442Z" fill="#D0C8F1"/>
<path d="M19.4353 57.6154H22.3073L22.3073 32.5746H19.4353L19.4353 57.6154Z" fill="#D0C8F1"/>
<path d="M38.9989 33.0001H2.00196C1.37596 33.0001 0.902644 32.4064 1.01716 31.7639L6.15071 2.85525C6.23893 2.36003 6.65287 2.00012 7.13552 2.00012H33.8645C34.3471 2.00012 34.761 2.36003 34.8493 2.85525L39.9828 31.7639C40.0973 32.4064 39.6249 33.0001 38.9989 33.0001Z" fill="#FFD00D"/>
<path d="M41.7032 32.8613H2.33669C1.67017 32.8613 1.1671 32.2566 1.28905 31.6011L6.75168 2.14187C6.84484 1.6371 7.28524 1.27039 7.79932 1.27039H36.2406C36.7546 1.27039 37.195 1.6371 37.2882 2.14187L42.7508 31.6011C42.8728 32.2566 42.3697 32.8613 41.7032 32.8613Z" stroke="#5D3EBB" stroke-width="3" stroke-miterlimit="10"/>
<path d="M19.7222 57.8474H24.3176L24.3176 32.8616H19.7222L19.7222 57.8474Z" stroke="#5D3EBB" stroke-width="3" stroke-miterlimit="10"/>
<path d="M36.3794 61.1255V59.7383C36.3794 58.8524 35.6612 58.1342 34.7754 58.1342H9.26447C8.37859 58.1342 7.6604 58.8524 7.6604 59.7383V61.1255C7.6604 62.0114 8.37859 62.7296 9.26447 62.7296H34.7762C35.6612 62.7296 36.3794 62.0114 36.3794 61.1255Z" stroke="#5D3EBB" stroke-width="3" stroke-miterlimit="10"/>
<path d="M33.123 32.8613V40.3286" stroke="#5D3EBB" stroke-width="3" stroke-miterlimit="10"/>
<path d="M32.9333 44.3489C34.2023 44.3489 35.231 43.3202 35.231 42.0512C35.231 40.7823 34.2023 39.7535 32.9333 39.7535C31.6643 39.7535 30.6356 40.7823 30.6356 42.0512C30.6356 43.3202 31.6643 44.3489 32.9333 44.3489Z" stroke="#5D3EBB" stroke-width="3" stroke-miterlimit="10"/>
<path d="M2.31128 26.0885H26.6153" stroke="#5D3EBB" stroke-width="3" stroke-miterlimit="10"/>
<path d="M30.3485 26.0885H42.1232" stroke="#5D3EBB" stroke-width="3" stroke-miterlimit="10"/>
</g>
<defs>
<clipPath id="clip0">
<rect width="44.0398" height="64" fill="white"/>
</clipPath>
</defs>
</svg>
