<svg width="90" height="68" viewBox="0 0 90 68" fill="none" xmlns="http://www.w3.org/2000/svg">
<path d="M45.1393 51.9204L40.2539 59.6446H50.0246L45.1393 51.9204Z" fill="#D0C8F1"/>
<path d="M51.8011 56.5357C51.8011 61.1964 48.0233 64.9741 43.3627 64.9741C38.7021 64.9741 34.9244 63.417 34.9244 58.7564" fill="#D0C8F1"/>
<path d="M31.3714 33.8854C35.2959 33.8854 38.4774 30.704 38.4774 26.7795C38.4774 22.8549 35.2959 19.6735 31.3714 19.6735C27.4469 19.6735 24.2654 22.8549 24.2654 26.7795C24.2654 30.704 27.4469 33.8854 31.3714 33.8854Z" fill="#FFD00D"/>
<path d="M34.3423 3.98013C34.3423 3.98013 17.8009 9.25029 5.85475 20.5278C-6.09142 31.8054 13.2065 43.0837 16.8823 42.2158C20.5582 41.3479 21.1683 34.4084 21.7822 31.8054C22.3954 29.2032 25.1526 8.25246 34.3423 3.98013Z" fill="#D0C8F1"/>
<path d="M45.8526 42.4846L48.5599 37.7956C49.211 36.6675 48.3974 35.2587 47.0952 35.2587H41.6805C40.3783 35.2587 39.5647 36.6684 40.2158 37.7956L42.9231 42.4846C43.5742 43.6127 45.2015 43.6127 45.8526 42.4846Z" fill="#FFD00D"/>
<path d="M44.2794 52.2552C44.5645 52.2766 44.8603 52.2766 45.1552 52.2766C45.4501 52.2766 45.7468 52.2766 46.031 52.2552" stroke="#5D3EBB" stroke-width="3" stroke-miterlimit="10"/>
<path d="M69.9848 9.92056C64.779 4.7563 54.0731 2 45.0915 2C41.3688 2 37.8142 2.35365 34.564 3.13269C34.5534 3.13269 34.5427 3.13269 34.5215 3.14499C34.5003 3.14499 34.479 3.1573 34.4481 3.1696C29.9997 4.22951 24.1279 6.38522 21.1414 9.26052" stroke="#5D3EBB" stroke-width="3" stroke-miterlimit="10"/>
<path d="M20.1679 37.4864V37.497C21.4559 39.8305 23.06 41.9623 24.9289 43.8418C24.3587 45.1297 24.0424 46.5545 24.0424 48.0539C24.0424 53.8808 28.7715 58.6107 34.5992 58.6107C34.768 58.6107 34.9261 58.6107 35.0851 58.6C39.2128 58.4099 42.7178 55.8553 44.2802 52.2553C44.8505 50.9673 45.1561 49.5523 45.1561 48.0539C45.1561 46.956 44.9873 45.8901 44.6702 44.897C44.8283 44.8864 44.9873 44.8864 45.1561 44.8864C45.3248 44.8864 45.4829 44.8864 45.6419 44.897C45.3248 45.8892 45.1561 46.956 45.1561 48.0539C45.1561 49.5532 45.4625 50.9673 46.0319 52.2553C47.5943 55.8553 51.0993 58.4099 55.227 58.6C55.3851 58.6107 55.5441 58.6107 55.7129 58.6107C61.5398 58.6107 66.2697 53.8816 66.2697 48.0539C66.2697 46.5545 65.9526 45.1297 65.3832 43.8418C67.1881 42.0369 68.7399 39.9886 69.9861 37.7609" stroke="#5D3EBB" stroke-width="3" stroke-miterlimit="10"/>
<path d="M35.0842 58.6C36.4246 62.8858 40.4261 66 45.1552 66C49.8842 66 53.8857 62.8858 55.2261 58.6" stroke="#5D3EBB" stroke-width="3" stroke-miterlimit="10"/>
<path d="M34.3423 3.3201C34.3423 3.3201 17.8009 8.68112 5.85475 20.1531C-6.09142 31.6251 13.2065 43.0978 16.8823 42.215C20.5582 41.3321 21.1683 34.2729 21.7822 31.6251C22.3961 28.978 25.1534 7.66683 34.3423 3.3201Z" stroke="#5D3EBB" stroke-width="3" stroke-miterlimit="10"/>
<path d="M55.4638 3.3201C55.4638 3.3201 72.3427 8.68103 84.5326 20.1528C96.7226 31.6246 77.0317 43.0972 73.2808 42.2151C69.53 41.333 68.9074 34.2732 68.281 31.6254C67.6545 28.9776 64.841 7.66676 55.4638 3.3201Z" stroke="#5D3EBB" stroke-width="3" stroke-miterlimit="10"/>
<path d="M46.7017 44.9885L50.7815 37.9225C51.4325 36.7945 50.6189 35.3857 49.3167 35.3857H41.1582C39.856 35.3857 39.0424 36.7954 39.6935 37.9225L43.7732 44.9885C44.4234 46.1166 46.0507 46.1166 46.7017 44.9885Z" stroke="#5D3EBB" stroke-width="3" stroke-miterlimit="10"/>
<path d="M31.4319 30.1068C33.1807 30.1068 34.5985 28.6891 34.5985 26.9402C34.5985 25.1914 33.1807 23.7737 31.4319 23.7737C29.683 23.7737 28.2653 25.1914 28.2653 26.9402C28.2653 28.6891 29.683 30.1068 31.4319 30.1068Z" fill="white" stroke="#5D3EBB" stroke-width="3" stroke-miterlimit="10"/>
<path d="M59.9347 30.1068C61.6836 30.1068 63.1013 28.6891 63.1013 26.9402C63.1013 25.1914 61.6836 23.7737 59.9347 23.7737C58.1859 23.7737 56.7681 25.1914 56.7681 26.9402C56.7681 28.6891 58.1859 30.1068 59.9347 30.1068Z" stroke="#5D3EBB" stroke-width="3" stroke-miterlimit="10"/>
<path d="M29.1148 50.8311H32.2088" stroke="#5D3EBB" stroke-width="3" stroke-miterlimit="10"/>
<path d="M35.3027 46.7058H38.3967" stroke="#5D3EBB" stroke-width="3" stroke-miterlimit="10"/>
<path d="M34.2714 53.925H37.3654" stroke="#5D3EBB" stroke-width="3" stroke-miterlimit="10"/>
<path d="M62.1171 50.8311H59.0231" stroke="#5D3EBB" stroke-width="3" stroke-miterlimit="10"/>
<path d="M56.9605 53.925H53.8665" stroke="#5D3EBB" stroke-width="3" stroke-miterlimit="10"/>
<path d="M54.8979 46.7058H51.8039" stroke="#5D3EBB" stroke-width="3" stroke-miterlimit="10"/>
</svg>
