<svg width="93" height="64" viewBox="0 0 93 64" fill="none" xmlns="http://www.w3.org/2000/svg">
<g clip-path="url(#clip0)">
<path d="M46.3248 64C71.9092 64 92.6496 59.8519 92.6496 54.735C92.6496 49.6182 71.9092 45.4701 46.3248 45.4701C20.7403 45.4701 0 49.6182 0 54.735C0 59.8519 20.7403 64 46.3248 64Z" fill="#FFD00D"/>
<path d="M42.283 60.0543L42.8504 47.7863L52.1154 57.0513L50.6133 60.5152L42.283 60.0543Z" fill="#D0C8F1"/>
<path d="M48.9999 59.4999L78.5147 48.8668C79.2976 48.6225 79.8419 47.9114 79.8743 47.0926L80.978 19.5062C80.978 19.5062 84.3099 16.4777 83.2943 11.3994C82.1361 5.60876 67.423 1.49988 56.9999 1.49988C46.5769 1.49988 21.6557 5.96083 9.26495 13.0427" fill="#D0C8F1"/>
<path d="M10.9002 55.0049L42.9222 59.3675V25.4509C42.9222 25.4509 51.5074 24.1538 47.4968 18.6677C43.4862 13.1817 33.3376 11.8846 24.3136 11.8846C20.6203 11.8846 17.2629 12.0688 14.4476 12.737C10.3837 13.7017 7.44904 15.6763 6.26428 19.5665C4.25842 26.1504 9.27192 27.2483 9.27192 27.2483V52.8705C9.27192 53.9186 9.95752 54.8173 10.9002 55.0049Z" fill="white"/>
<path d="M11.7248 54.4976L47.5269 61.0074C47.806 61.0584 48.062 60.8441 48.062 60.5604V27.5192C48.062 27.5192 57.3269 22.8868 52.6945 17.0962C48.062 11.3056 39.9231 8.50012 29.5 8.50012C25.2346 8.50012 19.0129 8.94995 15.8211 9.88919C11.0022 11.3056 7.5278 14.7799 6.36968 17.0962C3.09452 23.6476 9.84404 25.203 9.84404 25.203V52.2451C9.84404 53.3511 10.635 54.2996 11.7248 54.4976Z" stroke="#5D3EBB" stroke-width="3" stroke-miterlimit="10"/>
<path d="M47.5 61.0001L78.2194 48.7777C78.8922 48.5287 79.3497 47.8986 79.3786 47.1806L80.4893 19.4124C80.4893 19.4124 83.8212 16.3839 82.8055 11.3055C82.1444 7.99994 76.8802 3.44387 66.5 2.5C53.7607 1.34188 27.6767 2.93235 15.286 10.0142" stroke="#5D3EBB" stroke-width="3" stroke-miterlimit="10"/>
<path d="M17.9509 20.5705V23.4658" stroke="#5D3EBB" stroke-width="3" stroke-miterlimit="10"/>
<path d="M35.3226 22.8868V25.7821" stroke="#5D3EBB" stroke-width="3" stroke-miterlimit="10"/>
<path d="M28.3739 29.8354V32.7307" stroke="#5D3EBB" stroke-width="3" stroke-miterlimit="10"/>
<path d="M19.1089 40.2585V43.1538" stroke="#5D3EBB" stroke-width="3" stroke-miterlimit="10"/>
<path d="M35.3226 48.3654V51.2607" stroke="#5D3EBB" stroke-width="3" stroke-miterlimit="10"/>
<path d="M38.797 39.1004V41.9957" stroke="#5D3EBB" stroke-width="3" stroke-miterlimit="10"/>
</g>
<defs>
<clipPath id="clip0">
<rect width="92.6496" height="64" fill="white"/>
</clipPath>
</defs>
</svg>
