<svg width="75" height="64" viewBox="0 0 75 64" fill="none" xmlns="http://www.w3.org/2000/svg">
<path d="M28.3685 1.80396L19.508 3.57586L3.55872 26.6138L15.9642 35.4743L21.2799 26.6138V28.3921V62.056H39.0021" fill="#D0C8F1"/>
<path d="M47.4608 0.412506C46.016 5.8308 42.9851 10.5651 37.4642 10.5651C31.9434 10.5651 28.749 5.87141 27.4677 0.412506" stroke="#5D3EBB" stroke-width="3" stroke-miterlimit="10"/>
<path d="M27.0273 2.14487L18.3648 3.87716C18.2378 3.90257 18.1255 3.97631 18.0518 4.08285L2.49797 26.5496C2.34242 26.7743 2.39608 27.0822 2.61844 27.2411L14.1812 35.5004C14.4187 35.6701 14.7504 35.6011 14.9006 35.3508L19.0237 28.4795C19.2807 28.0511 19.9387 28.2334 19.9387 28.733V28.733V61.8969C19.9387 62.1731 20.1625 62.3969 20.4387 62.3969H37.6598" stroke="#5D3EBB" stroke-width="3" stroke-miterlimit="10"/>
<path d="M47.589 2.14487L56.2515 3.87716C56.3786 3.90257 56.4908 3.9763 56.5646 4.08283L72.1194 26.5496C72.275 26.7743 72.2213 27.0822 71.9989 27.2411L60.4351 35.5005C60.1977 35.6701 59.866 35.6011 59.7158 35.3509L55.0428 27.5631C54.9402 27.3922 54.6777 27.4649 54.6777 27.6643V27.6643V61.8969C54.6777 62.1731 54.4538 62.3969 54.1777 62.3969H36.9565" stroke="#5D3EBB" stroke-width="3" stroke-miterlimit="10"/>
<path d="M19.9387 62.3969H37.6599" stroke="#5D3EBB" stroke-width="3" stroke-miterlimit="10"/>
<path d="M37.3082 36.7482C41.4397 36.7482 44.789 33.3989 44.789 29.2673C44.789 25.1357 41.4397 21.7864 37.3082 21.7864C33.1766 21.7864 29.8273 25.1357 29.8273 29.2673C29.8273 33.3989 33.1766 36.7482 37.3082 36.7482Z" fill="#FFD00D"/>
<path d="M25.5525 54.9161H28.7586" stroke="#5D3EBB" stroke-width="3" stroke-miterlimit="10"/>
</svg>
