<svg width="473" height="443" viewBox="0 0 473 443" fill="none" xmlns="http://www.w3.org/2000/svg">
<path d="M316.46 130.908H145.566C137.829 130.908 131.556 124.638 131.556 116.904V14.3971C131.556 6.66307 137.829 0.393433 145.566 0.393433H316.461C324.199 0.393433 330.471 6.66307 330.471 14.3971V116.904C330.47 124.638 324.197 130.908 316.46 130.908Z" stroke="#BCCFEF" stroke-width="0.75" stroke-miterlimit="10"/>
<path d="M1 423.622H456.381C455.95 298.285 354.185 196.809 228.69 196.809C103.196 196.809 1.43098 298.285 1 423.622Z" stroke="#BCCFEF" stroke-width="0.75" stroke-miterlimit="10"/>
<path d="M262.334 67.9459H260.112C260.112 54.1943 248.959 43.046 235.2 43.046C223.539 43.046 213.778 51.0655 211.064 61.8789C207.935 58.7861 203.634 56.8723 198.886 56.8723C191.523 56.8723 185.249 61.4708 182.741 67.9459H172.513C164.753 67.9459 158.461 74.2342 158.461 81.9922C158.461 89.7489 164.752 96.0385 172.513 96.0385H262.331C270.091 96.0385 276.384 89.7502 276.384 81.9922C276.387 74.2342 270.095 67.9459 262.334 67.9459Z" fill="#BCCFEF"/>
<path d="M437.426 423.891H297.354C278.04 423.891 262.383 408.241 262.383 388.936V66.3627C262.383 47.0576 278.04 31.4082 297.354 31.4082H437.425C456.739 31.4082 472.395 47.0576 472.395 66.3627V388.936C472.397 408.241 456.739 423.891 437.426 423.891Z" fill="#003570"/>
<path d="M435.766 40.5402H410.315C407.718 40.5402 405.613 42.6447 405.613 45.2401C405.613 50.6295 401.242 54.9973 395.851 54.9973H338.929C333.537 54.9973 329.167 50.6281 329.167 45.2401C329.167 42.6447 327.062 40.5402 324.465 40.5402H299.014C283.593 40.5402 271.092 53.0354 271.092 68.4488V386.852C271.092 402.265 283.593 414.759 299.014 414.759H435.768C451.188 414.759 463.689 402.264 463.689 386.851V68.4488C463.688 53.0354 451.187 40.5402 435.766 40.5402Z" fill="#EDF1F9"/>
<path d="M414.642 250.128C406.456 251.574 396.808 255.288 391.532 257.487C389.995 258.129 388.27 257.302 387.764 255.715C381.452 235.918 371.016 216.803 366.956 209.724C366.129 208.282 366.303 206.481 367.38 205.215L386.924 182.261C388.571 180.325 391.321 179.748 393.61 180.858L422.452 194.851L463.688 211.702V207.762L423.939 191.523L373.312 166.958C370.268 165.481 367.711 163.184 365.918 160.315L361.607 153.42C360.471 151.604 360.537 149.284 361.772 147.535L410.096 79.1274L407.118 77.0242L360.881 142.476C359.338 144.659 356.071 144.567 354.654 142.301L341.702 121.589L329.118 80.1677L325.626 81.2266L338.282 122.88L341.544 128.112C343.428 131.136 344.05 134.778 343.274 138.253L337.209 165.403C336.934 166.633 336.243 167.731 335.252 168.509L314.098 185.14C313.117 185.911 311.706 185.787 310.876 184.855L306.539 179.988C300.456 173.164 292.92 167.791 284.483 164.264L271.095 158.668V160.646L283.779 165.947C291.921 169.35 299.322 174.628 305.186 181.21L327.508 206.23L334.667 218.478C335.577 220.035 334.998 222.035 333.398 222.869C321.582 229.029 310.104 234.775 306.787 235.659C300.989 237.205 280.455 239.968 271.095 241.186V243.026C280.384 241.823 301.229 239.029 307.258 237.422C311.875 236.191 330.886 226.335 345.847 218.38C347.889 217.294 350.355 218.721 350.416 221.032C350.663 230.206 351.227 247.686 352.288 264.293C353.58 284.513 381.457 288.69 392.423 289.55C394.748 289.733 396.743 291.219 397.637 293.371C398.788 296.143 399.992 298.905 401.222 301.624C402.008 303.363 401.342 305.403 399.662 306.311C389.092 312.027 357.967 328.122 337.476 331.024C317.22 333.894 283.739 351.232 271.094 358.087V360.161C282.909 353.716 317.271 335.728 337.732 332.83C357.418 330.04 386.625 315.333 398.692 308.901C401.263 307.53 404.448 308.585 405.725 311.203C413.549 327.239 421.013 339.836 421.14 340.046L456.052 405.994C456.496 405.523 456.942 405.054 457.353 404.554L422.731 339.155C422.474 338.726 397.083 295.875 390.989 267.634C390.892 267.186 390.792 266.736 390.689 266.286C390.145 263.913 391.387 261.502 393.639 260.576C398.905 258.414 407.856 255.036 415.277 253.722C421.319 252.67 443.906 257.745 463.689 262.774V259C444.666 254.165 421.456 248.914 414.642 250.128ZM339.427 163.843L345.25 137.776C345.474 136.773 346.803 136.546 347.346 137.419L362.824 162.246C364.981 165.698 368.058 168.461 371.721 170.238L385.46 176.904C386.765 177.536 387.121 179.23 386.183 180.334L377.281 190.822C376.209 192.085 374.352 192.326 372.992 191.378L341.636 169.519C339.816 168.251 338.942 166.007 339.427 163.843ZM340.625 219.072C339.131 219.861 337.277 219.336 336.423 217.878L328.974 205.162L315.237 189.75C314.333 188.735 314.472 187.166 315.54 186.326L334.45 171.461C336.342 169.972 338.985 169.896 340.96 171.274L370.643 191.966C372.552 193.297 372.9 195.982 371.395 197.757L363.896 206.591C362.535 207.33 352.204 212.956 340.625 219.072ZM394.386 285.129C394.871 286.436 393.854 287.811 392.465 287.691C381.868 286.782 355.287 282.657 354.107 264.172C352.862 244.661 352.3 223.939 352.136 216.953C352.108 215.772 352.747 214.689 353.788 214.131C356.878 212.47 359.521 211.041 361.461 209.988C362.97 209.169 364.849 209.704 365.699 211.195C370.795 220.135 384.284 245.192 389.206 268.013C390.353 273.335 392.178 279.165 394.386 285.129Z" fill="#BCCFEF"/>
<path d="M343.19 49.1863C344.938 49.1863 346.354 47.7705 346.354 46.0241C346.354 44.2777 344.938 42.8619 343.19 42.8619C341.443 42.8619 340.027 44.2777 340.027 46.0241C340.027 47.7705 341.443 49.1863 343.19 49.1863Z" fill="white"/>
<path d="M392.786 47.99H353.11C352.023 47.99 351.143 47.1098 351.143 46.0242C351.143 44.9386 352.023 44.0583 353.11 44.0583H392.786C393.872 44.0583 394.753 44.9386 394.753 46.0242C394.753 47.1098 393.872 47.99 392.786 47.99Z" fill="white"/>
<path d="M435.766 40.5402H410.315C407.718 40.5402 405.613 42.6447 405.613 45.2401C405.613 50.6295 401.242 54.9973 395.851 54.9973H338.929C333.537 54.9973 329.167 50.6281 329.167 45.2401C329.167 42.6434 327.062 40.5402 324.465 40.5402H299.014C283.593 40.5402 271.092 53.0354 271.092 68.4488V86.4522H463.688V68.4488C463.688 53.0354 451.187 40.5402 435.766 40.5402Z" fill="white"/>
<path d="M435.231 415.127H298.992C283.188 415.127 270.376 402.321 270.376 386.524V384.452H463.848V386.524C463.848 402.321 451.036 415.127 435.231 415.127Z" fill="white"/>
<path d="M108.014 251.436L105.082 254.461L76.119 251.436L52.6329 201.749L55.5643 198.724H87.4592L108.014 251.436Z" fill="#BCCFEF"/>
<path d="M105.083 254.461H73.1877L52.6329 201.749H84.5278L105.083 254.461Z" fill="#09141E"/>
<path d="M61.3385 206.115C61.9256 207.289 61.4492 208.24 60.2751 208.24C59.1009 208.24 57.6732 207.289 57.0861 206.115C56.499 204.942 56.9754 203.991 58.1495 203.991C59.3237 203.99 60.7514 204.942 61.3385 206.115Z" fill="white"/>
<path d="M235.297 147.701L235.898 157.531L230.083 163.193L224.097 149.411L235.297 147.701Z" fill="#003570"/>
<path d="M116.696 431.631H309.447L301.569 343.857L365.188 343.172C365.188 343.172 357.492 297.702 352.532 271.89C347.573 246.078 333.378 226.248 313.882 215.992C294.385 205.736 249.749 189.326 249.749 189.326L244.448 180.778L211.612 188.3L209.927 194.364L163.307 219.128C146.326 228.148 133.803 243.752 128.678 262.278L103.7 352.575H132.602L116.696 431.631Z" fill="#FFD10D"/>
<path d="M280.06 271.834L156.886 315.31L138.228 431.631H309.446L301.569 343.858H282.073L280.06 271.834Z" fill="#D45325"/>
<path d="M193.698 158.001C198.572 184.027 212.681 183.259 212.681 183.259L214.989 195.823L225.379 215.054L229.099 200.438L242.31 186.335L233.953 165.894C241.368 167.344 243.499 157.311 238.59 154.733C233.681 152.155 231.374 157.164 231.374 159.127L224.096 149.412L193.698 158.001Z" fill="#FF9595"/>
<path d="M233.022 170.275L209.927 182.847C211.596 183.315 212.681 183.257 212.681 183.257L214.99 195.822L218.192 201.749L233.022 170.275Z" fill="#E64242"/>
<path d="M233.675 159.539C233.675 156.368 235.791 155.933 237.375 156.518C238.96 157.105 239.606 160.097 238.197 161.564" stroke="#E54242" stroke-width="0.5" stroke-miterlimit="10"/>
<path d="M206.245 163.193L207.977 173.45" stroke="#E54242" stroke-width="0.5" stroke-miterlimit="10"/>
<path d="M198.787 165.694C199.429 164.027 201.865 163.451 203.211 164.476" stroke="black" stroke-width="0.5" stroke-miterlimit="10"/>
<path d="M209.002 162.873C209.322 160.63 213.62 159.155 215.864 160.758" stroke="black" stroke-width="0.5" stroke-miterlimit="10"/>
<path d="M235.297 147.701L176.823 166.405C176.032 166.657 175.177 166.287 174.82 165.536C174.415 164.68 174.807 163.659 175.682 163.296L191.774 156.625C191.774 156.625 186.984 136.718 203.213 131.289C219.052 125.993 232.219 131.976 235.297 147.701Z" fill="#FFD10D"/>
<path d="M214.214 129.417C210.777 129.389 207.077 129.999 203.213 131.292C186.985 136.721 191.776 156.628 191.776 156.628C198.275 153.942 213.266 151.453 219.281 152.827L214.214 129.417Z" fill="#FFAF2D"/>
<path d="M218.796 202.866L214.349 213.259L209.927 194.364L211.612 188.301L213.529 187.863L214.991 195.822L218.796 202.866Z" fill="#FFAF2D"/>
<path d="M229.099 200.438L235.297 212.062L249.75 189.327L244.449 180.779L240.417 181.702L242.31 186.335L229.099 200.438Z" fill="#FFAF2D"/>
<path d="M226.32 217.608V376.337" stroke="#FFAF2D" stroke-width="0.5" stroke-miterlimit="10"/>
<path d="M165.438 261.977L159.005 314.325" stroke="#FFAF2D" stroke-width="0.5" stroke-miterlimit="10"/>
<path d="M223.185 229.633C223.185 230.844 222.203 231.826 220.991 231.826C219.78 231.826 218.798 230.844 218.798 229.633C218.798 228.422 219.78 227.441 220.991 227.441C222.201 227.441 223.185 228.422 223.185 229.633Z" fill="white"/>
<path d="M223.185 256.654C223.185 257.865 222.203 258.846 220.991 258.846C219.78 258.846 218.798 257.865 218.798 256.654C218.798 255.443 219.78 254.461 220.991 254.461C222.201 254.461 223.185 255.443 223.185 256.654Z" fill="white"/>
<path d="M79.9859 275.154L120.289 342.661V422.76C120.289 422.76 100.793 424.083 86.0849 398.927C71.377 373.771 53.5909 278.044 53.5909 278.044L79.9859 275.154Z" fill="#FF9595"/>
<path d="M79.9859 275.154L53.5909 278.045C53.5909 278.045 53.9619 280.044 54.6397 283.525L92.9485 296.865L79.9859 275.154Z" fill="#E64242"/>
<path d="M267.764 299.141V292.772H233.368V299.141C231.424 299.91 230.044 301.797 230.044 304.014V335.857H271.089V304.014C271.088 301.796 269.708 299.91 267.764 299.141Z" fill="#BDD8F4"/>
<path d="M271.088 305.055H243.04V329.825H271.088V305.055Z" fill="#85BEED"/>
<path d="M268.572 289.672H232.561C231.17 289.672 230.044 290.798 230.044 292.187C230.044 293.577 231.172 294.702 232.561 294.702H268.572C269.962 294.702 271.088 293.575 271.088 292.187C271.088 290.798 269.961 289.672 268.572 289.672Z" fill="white"/>
<path d="M173.165 317.963C173.165 317.963 180.964 301.693 192.172 296.776C198.234 280.607 204.486 273.683 212.478 272.09C219.777 261.614 227.583 258.874 235.091 258.792C242.597 258.709 249.452 257.581 250.486 264.883C251.518 272.184 242.312 286.5 242.312 286.5C242.312 286.5 241.942 300.112 231.663 308.533C231.663 308.533 231.328 317.431 223.429 327.542L173.165 317.963Z" fill="#845025"/>
<path d="M193.653 305.87C192.626 305.518 192.877 304.307 193.96 304.385C199.924 304.814 210.268 306.02 218.296 309.394C219.257 309.798 218.925 311.017 217.885 310.934C207.408 310.091 198.654 307.588 193.653 305.87Z" fill="#F9C269"/>
<path d="M206.686 290.04C205.64 289.694 205.881 288.434 206.98 288.511C212.638 288.908 221.883 290.05 229.404 293.335C230.323 293.737 230.043 294.909 229.041 294.857C221.21 294.452 212.139 291.842 206.686 290.04Z" fill="#F9C269"/>
<path d="M220.367 277.994C219.288 277.74 219.42 276.523 220.528 276.552C224.448 276.655 229.917 277.195 234.849 279.085C235.806 279.451 235.521 280.584 234.501 280.489C229.751 280.049 224.277 278.913 220.367 277.994Z" fill="#F9C269"/>
<path d="M230.199 267.468C229.131 267.299 229.153 266.084 230.229 265.991C233.759 265.685 238.731 265.624 243.148 266.919C244.029 267.178 243.95 268.213 243.037 268.302C239.198 268.678 233.943 268.057 230.199 267.468Z" fill="#F9C269"/>
<path d="M145.414 325.896C145.414 325.896 149.963 306.976 160.672 299.258C163.411 280.836 168.44 272.123 176.511 268.638C181.841 255.941 189.455 251.29 197.354 249.508C205.253 247.726 212.227 244.988 214.966 252.457C217.706 259.925 211.23 277.102 211.23 277.102C211.23 277.102 213.916 291.54 204.978 302.743C204.978 302.743 206.635 312.203 200.589 324.65L145.414 325.896Z" fill="#AC6933"/>
<path d="M163.908 308.469C162.83 308.335 162.829 307.087 163.904 306.933C170.291 306.02 181.918 304.863 191.387 306.729C192.41 306.931 192.338 308.204 191.305 308.343C179.676 309.908 169.556 309.173 163.908 308.469Z" fill="#F9C269"/>
<path d="M174.055 288.834C172.96 288.711 172.932 287.416 174.022 287.257C180.092 286.372 190.501 285.398 199.43 287.28C200.412 287.487 200.384 288.702 199.395 288.867C190.809 290.299 180.231 289.523 174.055 288.834Z" fill="#F9C269"/>
<path d="M185.741 273.075C184.633 273.05 184.505 271.817 185.593 271.606C189.839 270.784 196.072 270.03 201.978 271.011C202.989 271.179 202.944 272.363 201.927 272.489C196.59 273.153 190.177 273.174 185.741 273.075Z" fill="#F9C269"/>
<path d="M193.783 259.783C192.704 259.838 192.467 258.632 193.498 258.308C197.212 257.143 202.721 255.846 207.895 256.277C208.809 256.353 208.955 257.393 208.083 257.68C203.992 259.029 197.953 259.567 193.783 259.783Z" fill="#F9C269"/>
<path d="M97.5281 329.741L106.376 262.995H154.473L165.765 329.741H97.5281Z" fill="#864710"/>
<path d="M106.376 258.042H157.367L158.821 270.51L105.651 268.458L106.376 258.042Z" fill="#864710"/>
<path d="M105.651 268.458L115.058 329.741H97.5281L105.651 268.458Z" fill="#462204"/>
<path d="M156.833 276.95L105.38 270.51L105.651 268.458L155.744 270.51L156.833 276.95Z" fill="#462204"/>
<path d="M154.393 301.326H122.303L120.545 287.934H152.633L154.393 301.326Z" fill="white"/>
<path d="M276.941 318.218H92.9468V431.893H276.941V318.218Z" fill="#FCE8E8"/>
<path d="M276.942 318.218H243.988V431.893H276.942V318.218Z" fill="#FCD4D4"/>
<path d="M224.793 356.808C224.624 357.148 224.277 357.363 223.897 357.363H75.0906C74.3481 357.363 73.8645 356.582 74.1952 355.917L92.6717 318.772C92.8407 318.433 93.1875 318.218 93.567 318.218H242.374C243.116 318.218 243.6 318.998 243.269 319.663L224.793 356.808Z" fill="white"/>
<path d="M288.23 340.031L290.026 376.337L217.171 407.238L218.453 434.799C218.453 434.799 281.302 434.799 310.547 434.799C339.792 434.799 357.712 415.568 361.45 395.825C365.189 376.081 361.45 340.033 361.45 340.033H288.23V340.031Z" fill="#FF9595"/>
<path d="M137.219 434.165V409.954C137.219 407.687 139.481 406.098 141.604 406.898C155.544 412.149 170.91 407.96 170.91 407.96C168.655 405.03 163.425 403.288 160.124 402.441C158.468 402.017 157.375 400.454 157.558 398.756C157.758 396.901 159.404 395.539 161.262 395.714C165.179 396.081 171.857 397 177.579 399.242C186.301 402.66 195.365 407.446 195.365 407.446L221.873 399.242L223.836 436.849H190.064C190.064 436.849 167.11 447.404 141.612 440.066C138.999 439.315 137.219 436.883 137.219 434.165Z" fill="#5D3EBC"/>
<path d="M137.219 414.548C137.219 414.548 149.264 419.893 166.763 419.246" stroke="#462FA8" stroke-miterlimit="10"/>
<path d="M137.219 423C137.219 423 149.264 428.345 166.763 427.698" stroke="#462FA8" stroke-miterlimit="10"/>
<path d="M137.219 431.452C137.219 431.452 149.264 436.796 166.763 436.149" stroke="#462FA8" stroke-miterlimit="10"/>
<path d="M290.026 376.337L307.554 369.329" stroke="#E54242" stroke-width="0.6316" stroke-miterlimit="10"/>
<path d="M361.451 340.031H288.23L288.819 351.917C301.148 352.875 336.745 356.498 363.065 367.712C362.798 353.043 361.451 340.031 361.451 340.031Z" fill="#E64242"/>
<path d="M346.369 410.556C343.849 414.412 340.412 416.628 338.692 415.505C336.972 414.382 337.62 410.345 340.141 406.49C342.661 402.634 346.099 400.418 347.818 401.541C349.538 402.663 348.89 406.7 346.369 410.556Z" fill="#E64242"/>
<path d="M370.661 335.14H279.678V344.924H370.661V335.14Z" fill="#D45325"/>
<path d="M174.66 192.813L158.35 171.902C161.533 166.414 163.385 160.058 163.385 153.257C163.385 132.676 146.693 115.992 126.103 115.992C105.512 115.992 88.8198 132.676 88.8198 153.257C88.8198 173.839 105.512 190.523 126.103 190.523C135.555 190.523 144.158 186.978 150.73 181.185L174.66 192.813Z" fill="#5D3EBC"/>
<path d="M127.752 140.95C123.861 137.061 117.509 137.097 113.663 141.058C110.117 144.711 109.99 150.734 113.39 154.525C116.231 157.693 120.599 158.569 124.29 157.162C125.681 156.631 127.254 157.007 128.307 158.06L138.172 167.92C138.884 168.632 140.038 168.632 140.751 167.92C141.463 167.207 141.463 166.052 140.751 165.342L130.886 155.48C129.824 154.42 129.471 152.837 130 151.434C131.331 147.912 130.583 143.78 127.752 140.95ZM125.172 152.348C122.739 154.779 118.782 154.779 116.349 152.348C113.917 149.916 113.917 145.961 116.349 143.529C118.782 141.098 122.739 141.098 125.172 143.529C127.604 145.959 127.604 149.916 125.172 152.348Z" fill="white"/>
<path d="M279.679 265.807C279.337 248.644 292.074 225.234 320.381 223.6" stroke="#FFAF2D" stroke-width="0.5" stroke-miterlimit="10"/>
<path d="M232.112 156.628C232.112 156.628 214.703 171.452 198.364 172.269C198.364 172.269 202.463 186.163 214.006 185.822C225.55 185.481 230.506 174.966 235.296 166.035L233.954 165.894C233.954 165.894 230.082 173.943 226.148 169.412C222.215 164.883 231.375 159.127 231.375 159.127L232.112 156.628Z" fill="#E7F1F7"/>
<path d="M85.2298 280.096H50.6837L52.5651 250.352L52.3943 225.08L56.8415 212.403L59.9197 220.096L70.5166 210.092C71.6441 209.029 73.0624 208.338 74.5955 208.109C77.7138 207.644 83.1497 206.881 86.0851 206.763C90.3602 206.593 90.5323 212.576 86.9404 212.917C84.3759 213.161 80.6786 213.58 78.7732 213.799C77.9726 213.891 77.2481 214.287 76.7331 214.907L69.1543 224.028L81.4671 218.216L89.7424 217.973C91.6744 217.916 93.361 219.271 93.7226 221.168L96.2124 233.208C96.5526 234.855 95.3491 236.419 93.6692 236.512L87.6249 236.849L83.4325 239.973C81.5232 241.396 80.2876 243.532 79.9847 245.894C79.5604 249.2 78.441 253.948 75.4828 256.166L85.2298 280.096Z" fill="#5D3EBC"/>
<path d="M59.9181 220.096L53.5909 228.002" stroke="#462FA8" stroke-miterlimit="10"/>
<path d="M69.5386 231.079L84.4172 224.049L94.0415 223.6" stroke="#462FA8" stroke-miterlimit="10"/>
<path d="M73.4763 237.19L85.7424 230.608L95.5241 229.883" stroke="#462FA8" stroke-miterlimit="10"/>
<path d="M141.278 378.016C141.278 375.463 142.664 374.138 144.406 374.138C146.119 374.138 147.373 375.143 147.373 377.819C147.373 380.569 146.012 381.5 144.406 381.5C142.632 381.5 141.278 380.409 141.278 378.016ZM151.388 378.696C151.388 374.012 149.26 370.807 144.426 370.807C139.701 370.807 137.222 374.032 137.222 377.957C137.222 381.593 139.502 384.986 143.63 384.986C145.775 384.986 147.018 384.098 147.322 383.838V385.645C147.322 387.733 146.488 389.126 144.324 389.126C143.282 389.126 142.512 388.85 141.798 388.516C141.163 388.22 140.691 387.877 140.057 387.877C138.449 387.877 138.004 389.811 138.012 389.82C139.214 391.338 141.983 392.453 144.306 392.453C148.871 392.453 151.388 389.859 151.388 384.715C151.388 384.716 151.388 379.535 151.388 378.696Z" fill="#FFD10D"/>
<path d="M157.686 377.217C157.686 377.222 158.609 377.552 161.031 377.552C162.699 377.552 163.618 376.912 163.618 375.911C163.618 375.066 162.788 374.142 161.042 374.142C158.837 374.143 157.686 375.782 157.686 377.217ZM166.914 383.927C166.196 384.917 163.363 386.341 160.783 386.341C156.197 386.341 153.547 383.184 153.547 378.915C153.547 373.316 157.299 370.807 160.888 370.807C164.662 370.807 167.247 372.824 167.247 375.898C167.247 378.059 166.025 380.147 160.955 380.147C158.594 380.147 157.564 379.855 157.564 379.858C157.564 382.541 159.771 383.04 161.052 383.04C161.97 383.04 162.684 382.828 163.286 382.585C163.862 382.353 164.384 382.088 165.087 382.088C166.427 382.086 166.919 383.92 166.914 383.927Z" fill="#FFD10D"/>
<path d="M178.805 383.827C178.805 385.354 177.4 386.363 175.472 386.363C171.564 386.363 169.523 383.628 169.523 379.457L169.556 369.251C169.556 367.954 169.911 367.025 170.621 366.463C171.331 365.9 172.363 365.618 173.718 365.618C173.696 365.77 173.672 365.976 173.651 366.235C173.628 366.473 173.612 366.791 173.6 367.192C173.588 367.592 173.583 368.116 173.583 368.765L173.616 370.808H178.077C178.077 371.781 177.799 372.559 177.244 373.143C176.689 373.726 175.902 374.018 174.881 374.018H173.616L173.583 378.623C173.583 379.531 173.699 380.397 173.866 381.013C174.032 381.629 174.928 383.063 176.674 383.063C177.707 383.063 178.332 382.918 178.677 382.831C178.732 383.006 178.805 383.286 178.805 383.827Z" fill="#FFD10D"/>
<path d="M187.466 383.114C187.139 383.202 186.911 383.259 186.464 383.259C185.6 383.259 185.045 382.647 185.045 381.641V374.277C185.045 373.628 185.051 373.104 185.063 372.704C185.073 372.304 185.091 371.985 185.112 371.748C185.135 371.489 185.156 371.284 185.179 371.132C183.802 371.132 182.76 371.413 182.05 371.976C181.339 372.539 180.985 373.467 180.985 374.765L180.952 382.265C180.952 384.949 182.717 386.428 184.946 386.341C186.35 386.286 187.567 385.634 187.567 384.194C187.564 383.592 187.466 383.114 187.466 383.114ZM184.971 368.735C184.493 369.511 183.832 369.899 182.99 369.899C182.626 369.899 182.285 369.822 181.966 369.667C181.624 369.467 181.363 369.207 181.18 368.886C180.998 368.566 180.908 368.215 180.908 367.839C180.908 367.417 181.009 367.04 181.214 366.708C181.42 366.332 181.703 366.037 182.068 365.826C182.431 365.616 182.808 365.51 183.195 365.51C183.536 365.51 183.866 365.598 184.185 365.776C184.549 365.954 184.821 366.208 185.004 366.541C185.185 366.873 185.276 367.228 185.276 367.605C185.277 368.003 185.175 368.38 184.971 368.735Z" fill="#FFD10D"/>
<path d="M189.264 378.202C189.264 376.753 189.48 375.57 189.913 374.651C190.346 373.732 190.905 373.013 191.594 372.495C192.281 371.976 193.054 371.625 193.908 371.441C194.762 371.257 195.61 371.165 196.455 371.165H198.087C198.255 371.518 198.324 372.117 198.324 372.437C198.324 373.81 197.182 374.294 195.882 374.401C193.57 374.59 193.359 376.228 193.359 377.504V382.905C193.359 383.554 193.365 384.079 193.377 384.478C193.387 384.878 193.403 385.197 193.426 385.435C193.447 385.694 193.47 386.066 193.493 386.197C192.138 386.197 191.12 386.168 190.244 385.519C189.44 384.925 189.264 383.716 189.264 382.419V378.202Z" fill="#FFD10D"/>
<circle cx="80.3965" cy="83.9527" r="3.66136" stroke="#BCCFEF"/>
<path d="M385.424 182.993L366.243 206.481C365.505 207.384 365.358 208.633 365.865 209.683L388.371 256.275C388.625 256.799 388.8 257.358 388.893 257.933L392.096 277.867C392.363 279.529 392.829 281.153 393.484 282.704L400.405 299.095L407.895 314.908" stroke="#5D3EBC" stroke-width="3"/>
<path d="M412.948 333.01C418.864 333.01 423.661 328.215 423.661 322.301C423.661 316.387 418.864 311.593 412.948 311.593C407.031 311.593 402.235 316.387 402.235 322.301C402.235 328.215 407.031 333.01 412.948 333.01Z" fill="#BCCFEF"/>
<path d="M410.325 276.501C404.661 277.601 400.233 281.714 398.819 287.305C397.554 292.308 398.804 297.039 401.568 300.52C404.211 303.849 406.527 307.425 408.016 311.406L412.581 323.606C412.842 324.307 413.833 324.307 414.095 323.606L418.655 311.419C420.146 307.433 422.464 303.852 425.111 300.518C427.139 297.962 428.352 294.732 428.352 291.215C428.351 281.941 419.937 274.634 410.325 276.501ZM413.338 295.94C410.726 295.94 408.609 293.824 408.609 291.214C408.609 288.604 410.725 286.487 413.338 286.487C415.949 286.487 418.066 288.603 418.066 291.214C418.066 293.824 415.949 295.94 413.338 295.94Z" fill="#FFD10D"/>
<path d="M391.895 186.363C397.812 186.363 402.608 181.569 402.608 175.655C402.608 169.741 397.812 164.947 391.895 164.947C385.979 164.947 381.182 169.741 381.182 175.655C381.182 181.569 385.979 186.363 391.895 186.363Z" fill="#BCCFEF"/>
<path d="M389.27 129.854C383.606 130.954 379.179 135.067 377.765 140.658C376.5 145.661 377.75 150.393 380.514 153.873C383.157 157.202 385.473 160.778 386.962 164.759L391.527 176.959C391.788 177.66 392.778 177.66 393.041 176.959L397.6 164.772C399.092 160.786 401.41 157.205 404.057 153.871C406.085 151.315 407.298 148.085 407.298 144.568C407.298 135.295 398.884 127.987 389.27 129.854ZM392.285 149.294C389.673 149.294 387.556 147.178 387.556 144.567C387.556 141.957 389.672 139.84 392.285 139.84C394.896 139.84 397.013 141.957 397.013 144.567C397.013 147.178 394.896 149.294 392.285 149.294Z" fill="#5D3EBC"/>
</svg>
