<svg width="69" height="64" viewBox="0 0 69 64" fill="none" xmlns="http://www.w3.org/2000/svg">
<g clip-path="url(#clip0)">
<path d="M14.9217 25.5353H0.699463V44.9293H14.9217V25.5353Z" fill="#D1C9F2"/>
<path d="M20.0934 3.47277V6.78785H5.78845C5.47685 6.78785 5.22473 6.53508 5.22473 6.22413V2.90906H19.5297C19.8406 2.90906 20.0934 3.16183 20.0934 3.47277Z" fill="#FFD10D"/>
<path d="M44.7806 41.3537C46.689 39.3303 47.9741 35.6002 47.9741 31.3335C47.9741 29.0773 47.616 26.9763 46.998 25.1921C45.8486 21.8951 43.7993 19.6971 41.4681 19.6971C38.6166 19.6971 36.1981 22.9747 35.3202 27.5323C35.0869 28.7218 34.9621 30.0018 34.9621 31.3335C34.9621 35.6002 36.2473 39.3367 38.1608 41.3537C38.2423 41.4442 38.3179 41.5218 38.3993 41.5994L44.7806 41.3537Z" fill="#FFD10D"/>
<path d="M22.0328 2.21734V5.54017C22.0328 6.23189 21.4768 6.78785 20.7851 6.78785H5.82592C5.13421 6.78785 4.57825 6.23189 4.57825 5.54017V2.21734C4.57825 1.52563 5.13421 0.969666 5.82592 0.969666H20.7851C21.4768 0.969666 22.0328 1.52563 22.0328 2.21734Z" stroke="#5D3EBC" stroke-width="3" stroke-miterlimit="10"/>
<path d="M7.06713 6.7879C7.06713 6.7879 7.0348 7.54427 6.82794 8.7273C6.48531 10.7378 5.63844 13.9637 3.60854 16.8081C0.376218 21.3334 1.02268 26.5051 1.02268 26.5051V56.8889C1.02268 56.8889 1.02268 63.0303 7.1641 63.0303C13.3055 63.0303 13.3055 63.0303 13.3055 63.0303" stroke="#5D3EBC" stroke-width="3" stroke-miterlimit="10"/>
<path d="M25.1876 58.9058C24.6381 60.6965 23.1835 63.0303 19.3953 63.0303C14.5015 63.0303 13.506 63.0303 13.3056 63.0303C13.2538 63.0303 13.2538 63.0303 13.2538 63.0303" stroke="#5D3EBC" stroke-width="3" stroke-miterlimit="10"/>
<path d="M25.5366 31.1855V26.5051C25.5366 26.5051 25.5689 26.2594 25.5819 25.8198C25.6336 24.2683 25.472 20.3443 22.9508 16.8081C19.7184 12.2829 19.4857 6.7879 19.4857 6.7879" stroke="#5D3EBC" stroke-width="3" stroke-miterlimit="10"/>
<path d="M0.976807 25.8179H25.9116" stroke="#5D3EBC" stroke-width="3" stroke-miterlimit="10"/>
<path d="M18.154 45.2137H1.02273H0.977478" stroke="#5D3EBC" stroke-width="3" stroke-miterlimit="10"/>
<path d="M6.84088 21.0101V22.9495" stroke="#5D3EBC" stroke-width="3" stroke-miterlimit="10"/>
<path d="M6.84088 52.0404V56.5657" stroke="#5D3EBC" stroke-width="3" stroke-miterlimit="10"/>
<path d="M65.7512 48.1616H19.6874C18.8405 48.1616 18.154 47.4751 18.154 46.6282V42.5846C18.154 41.7377 18.8405 41.0511 19.6874 41.0511H65.7512C66.5981 41.0511 67.2847 41.7377 67.2847 42.5846V46.6282C67.2853 47.4751 66.5988 48.1616 65.7512 48.1616Z" stroke="#5D3EBC" stroke-width="3" stroke-miterlimit="10"/>
<path d="M46.1459 41.6969C46.0619 41.4836 45.9778 41.2703 45.9003 41.0505" stroke="#5D3EBC" stroke-width="3" stroke-miterlimit="10"/>
<path d="M49.6368 24.8889C50.5871 24.2618 51.6344 23.9192 52.7399 23.9192C57.0259 23.9192 60.4974 29.1297 60.4974 35.5556C60.4974 37.5402 60.1678 39.4149 59.5795 41.0505" stroke="#5D3EBC" stroke-width="3" stroke-miterlimit="10"/>
<path d="M46.9928 41.0505C49.2684 39.027 50.8005 35.2969 50.8005 31.0303C50.8005 28.7741 50.3738 26.6731 49.6368 24.8889C48.2663 21.5919 45.8227 19.3939 43.0429 19.3939C39.6425 19.3939 36.7593 22.6715 35.712 27.2291C35.434 28.4186 35.2853 29.6986 35.2853 31.0303C35.2853 35.2969 36.8175 39.0335 39.0995 41.0505C39.1964 41.141 39.287 41.2186 39.3839 41.2961" stroke="#5D3EBC" stroke-width="3" stroke-miterlimit="10"/>
<path d="M39.4421 41.0505C39.4227 41.1345 39.4033 41.2186 39.3839 41.2961" stroke="#5D3EBC" stroke-width="3" stroke-miterlimit="10"/>
<path d="M35.712 27.2291C34.6194 26.3564 33.3782 25.8586 32.053 25.8586C29.3184 25.8586 26.9136 27.979 25.5366 31.1855C24.7479 33.002 24.2954 35.1677 24.2954 37.4949C24.2954 38.7362 24.4247 39.9321 24.6639 41.0505" stroke="#5D3EBC" stroke-width="3" stroke-miterlimit="10"/>
<path d="M23.3342 48.1616C23.3342 48.1616 23.6483 58.1818 26.8807 62.0606H35.9312L39.81 53.6566H44.9817L48.8605 62.0606H57.911C57.911 62.0606 61.0702 54.9495 61.1064 48.1616H23.3342Z" stroke="#5D3EBC" stroke-width="3" stroke-miterlimit="10"/>
<path d="M27.5278 51.7172H30.7601" stroke="#5D3EBC" stroke-width="3" stroke-miterlimit="10"/>
</g>
<defs>
<clipPath id="clip0">
<rect width="68.255" height="64" fill="white"/>
</clipPath>
</defs>
</svg>
