<svg width="44" height="64" viewBox="0 0 44 64" fill="none" xmlns="http://www.w3.org/2000/svg">
<g clip-path="url(#clip0)">
<path d="M33.9475 58.0465H6.9827C3.94791 58.0465 1.48837 55.587 1.48837 52.5522V26.4662C1.48837 25.8232 2.0093 25.3023 2.65228 25.3023H38.278C38.9209 25.3023 39.4419 25.8232 39.4419 26.4662V52.5522C39.4419 55.587 36.9823 58.0465 33.9475 58.0465Z" fill="#CEC6EF"/>
<path d="M34.2326 57.3023H5.95349V63.9605H34.2326V57.3023Z" fill="#CEC6EF"/>
<path d="M6.52725 25.239V3.97393C6.52725 3.38825 6.92911 2.91272 7.42474 2.91272H9.67442V25.2383H6.52725V25.239Z" fill="#FFCE0D"/>
<path d="M22.8994 23.0697V5.99738C22.8994 5.52705 24.2508 5.14603 25.9185 5.14603H33.4884V23.0697H22.8994Z" fill="#FFCE0D"/>
<path d="M20.6668 5.2093V1.6052C20.6668 1.50623 22.5883 1.42511 24.9585 1.42511H35.7209V5.2093H20.6668Z" fill="#FFCE0D"/>
<path d="M36.5522 56.9302H6.6106C3.57581 56.9302 1.11627 54.4707 1.11627 51.4359V25.3499C1.11627 24.707 1.6372 24.186 2.28018 24.186H40.8826C41.5256 24.186 42.0465 24.707 42.0465 25.3499V51.4359C42.0465 54.4707 39.587 56.9302 36.5522 56.9302Z" stroke="#5D3EB9" stroke-width="3" stroke-miterlimit="10"/>
<path d="M35.6577 62.8837H7.5051C6.85393 62.8837 6.32556 62.3554 6.32556 61.7042V56.9302H36.8372V61.7042C36.8372 62.3554 36.3088 62.8837 35.6577 62.8837Z" stroke="#5D3EB9" stroke-width="3" stroke-miterlimit="10"/>
<path d="M35.3488 33.8605V48.7442" stroke="#5D3EB9" stroke-width="3" stroke-miterlimit="10"/>
<path d="M36.6675 5.58139H21.7503V24.186H36.6675V5.58139Z" stroke="#5D3EB9" stroke-width="3" stroke-miterlimit="10"/>
<path d="M37.344 5.58139H21.0746C20.5328 5.58139 20.093 5.14157 20.093 4.59981V2.09785C20.093 1.55609 20.5328 1.11627 21.0746 1.11627H37.344C37.8865 1.11627 38.3256 1.55609 38.3256 2.09785V4.59981C38.3256 5.14157 37.8858 5.58139 37.344 5.58139Z" stroke="#5D3EB9" stroke-width="3" stroke-miterlimit="10"/>
<path d="M6.32556 24.186V2.92165C6.32556 2.33523 6.94324 1.86044 7.70454 1.86044H11.1628V24.186H6.32556Z" stroke="#5D3EB9" stroke-width="3" stroke-miterlimit="10"/>
<path d="M16 1.86044H11.5349V13.0232H16V1.86044Z" stroke="#5D3EB9" stroke-width="3" stroke-miterlimit="10"/>
</g>
<defs>
<clipPath id="clip0">
<rect width="43.1628" height="64" fill="white"/>
</clipPath>
</defs>
</svg>
