<svg width="51" height="64" viewBox="0 0 51 64" fill="none" xmlns="http://www.w3.org/2000/svg">
<g clip-path="url(#clip0)">
<path d="M17.4192 20.8275C18.1176 23.2861 19.811 30.7581 19.5024 34.6004C19.5024 34.77 19.5024 34.9479 19.4889 35.125C21.6447 38.1365 23 42.5216 23 47.4033C23 56.4931 18.2954 60.9999 12.5 60.9999C6.7047 60.9999 2.00003 56.4931 2.00003 47.4033C2.00003 42.5216 3.35538 38.1365 5.51119 35.125C5.49764 34.9479 5.49764 34.7708 5.49764 34.6004C5.49764 30.9087 6.9096 22.692 7.85197 19.9999" fill="#D0C8F1"/>
<mask id="path-2-inside-1" fill="white">
<path d="M22.0823 22.483C22.98 25.4044 23.5029 28.8902 23.5029 32.6283C23.5029 32.8305 23.5029 33.0407 23.4855 33.2518C26.257 36.8298 28 42.042 28 47.8427C28 58.6446 21.9516 63.9999 14.5 63.9999C7.04845 63.9999 1.00003 58.6446 1.00003 47.8418C1.00003 42.0411 2.74309 36.8289 5.51456 33.2509C5.49713 33.0407 5.49713 32.8296 5.49713 32.6274C5.49713 28.2408 6.21178 24.1995 7.42321 20.9999"/>
</mask>
<path d="M23.4855 33.2518L20.4957 33.0049L20.3997 34.167L21.1138 35.0889L23.4855 33.2518ZM5.51456 33.2509L7.88627 35.088L8.60071 34.1657L8.50429 33.003L5.51456 33.2509ZM19.2147 23.3642C20.016 25.972 20.5029 29.1581 20.5029 32.6283H26.5029C26.5029 28.6224 25.944 24.8368 24.95 21.6018L19.2147 23.3642ZM20.5029 32.6283C20.5029 32.8493 20.5013 32.9369 20.4957 33.0049L26.4753 33.4987C26.5046 33.1444 26.5029 32.8117 26.5029 32.6283H20.5029ZM21.1138 35.0889C23.4193 38.0653 25 42.6044 25 47.8427H31C31 41.4795 29.0946 35.5942 25.8572 31.4147L21.1138 35.0889ZM25 47.8427C25 52.6908 23.6496 55.9456 21.8241 57.9545C20.0147 59.9457 17.483 60.9999 14.5 60.9999V66.9999C18.9686 66.9999 23.1869 65.3765 26.2646 61.9896C29.3262 58.6204 31 53.7966 31 47.8427H25ZM14.5 60.9999C11.517 60.9999 8.98537 59.9457 7.17598 57.9544C5.35048 55.9454 4.00003 52.6904 4.00003 47.8418H-1.99997C-1.99997 53.7961 -0.32621 58.6201 2.73539 61.9894C5.81311 65.3765 10.0315 66.9999 14.5 66.9999V60.9999ZM4.00003 47.8418C4.00003 42.6035 5.58074 38.0644 7.88627 35.088L3.14284 31.4138C-0.0945618 35.5933 -1.99997 41.4786 -1.99997 47.8418H4.00003ZM8.50429 33.003C8.4988 32.9367 8.49713 32.8491 8.49713 32.6274H2.49713C2.49713 32.81 2.49545 33.1446 2.52482 33.4988L8.50429 33.003ZM8.49713 32.6274C8.49713 28.5447 9.16532 24.8712 10.2288 22.0622L4.61757 19.9377C3.25824 23.5279 2.49713 27.937 2.49713 32.6274H8.49713Z" fill="#5D3EBB" mask="url(#path-2-inside-1)"/>
<path d="M13.9307 12.6933C13.4411 12.7348 4.68618 13.6258 3.91969 25.0207C3.8892 25.4746 4.47868 25.6847 4.73869 25.312C5.77536 23.8307 7.64628 21.4863 9.86869 20.2041C10.1033 20.0685 10.4057 20.1846 10.5056 20.4361L13.5335 28.0062C13.6842 28.3839 14.2186 28.3839 14.3694 28.0062L17.3541 20.5445C17.4684 20.2591 17.8292 20.1693 18.0638 20.3692L24.0221 25.4391C24.3287 25.6999 24.7954 25.4611 24.7632 25.0605C24.5066 21.8988 22.9854 12.7102 13.9764 12.6924C13.9612 12.6916 13.9476 12.6924 13.9307 12.6933Z" fill="white" stroke="#5D3EBB" stroke-width="3" stroke-miterlimit="10"/>
<path d="M11.8988 13.0278C11.8988 13.0278 13.0651 8.59996 10.3667 4.03235L13.7401 1.74896C13.7401 1.74896 16.4385 5.55517 15.7643 12.4062C15.7635 12.4062 14.106 12.1275 11.8988 13.0278Z" stroke="#5D3EBB" stroke-width="3" stroke-miterlimit="10"/>
<path d="M6.59775 48.5804C7.24482 53.8518 10.2769 56.8644 14.178 57.6453" stroke="#5D3EBB" stroke-width="3" stroke-miterlimit="10"/>
<path d="M32.811 61.4591C40.2951 61.4591 46.3622 55.392 46.3622 47.9079C46.3622 40.4237 40.2951 34.3566 32.811 34.3566C25.3268 34.3566 19.2597 40.4237 19.2597 47.9079C19.2597 55.392 25.3268 61.4591 32.811 61.4591Z" fill="#FFD00D"/>
<path d="M34.0814 62.7296C42.5011 62.7296 49.3265 55.9041 49.3265 47.4844C49.3265 39.0647 42.5011 32.2393 34.0814 32.2393C25.6617 32.2393 18.8362 39.0647 18.8362 47.4844C18.8362 55.9041 25.6617 62.7296 34.0814 62.7296Z" stroke="#5D3EBB" stroke-width="3" stroke-miterlimit="10"/>
<path d="M36.6222 35.6271C36.6222 35.6271 34.9283 24.6167 46.7857 21.2289" stroke="#5D3EBB" stroke-width="3" stroke-miterlimit="10"/>
<path d="M37.4692 28.494C37.4692 28.494 30.5699 27.6191 28.6905 20.4302C28.6346 20.2176 28.8345 20.016 29.0471 20.0719C30.8384 20.5454 37.1668 22.6196 37.8927 28.428" stroke="#5D3EBB" stroke-width="3" stroke-miterlimit="10"/>
<path d="M24.7649 46.214V48.7548" stroke="#5D3EBB" stroke-width="3" stroke-miterlimit="10"/>
<path d="M28.1527 50.4487V52.9896" stroke="#5D3EBB" stroke-width="3" stroke-miterlimit="10"/>
<path d="M28.1527 41.9792V44.5201" stroke="#5D3EBB" stroke-width="3" stroke-miterlimit="10"/>
</g>
<defs>
<clipPath id="clip0">
<rect width="50.597" height="64" fill="white"/>
</clipPath>
</defs>
</svg>
