<svg width="228" height="122" viewBox="0 0 228 122" fill="none" xmlns="http://www.w3.org/2000/svg">
<path d="M61 30L62.1597 32.8403L65 34L62.1597 35.1597L61 38L59.8403 35.1597L57 34L59.8403 32.8403L61 30Z" fill="#5D3EBC"/>
<path d="M37 65L38.1597 67.8403L41 69L38.1597 70.1597L37 73L35.8403 70.1597L33 69L35.8403 67.8403L37 65Z" fill="#5D3EBC"/>
<path d="M18 106L20.3193 111.681L26 114L20.3193 116.319L18 122L15.6807 116.319L10 114L15.6807 111.681L18 106Z" fill="#5D3EBC"/>
<path d="M4 11L5.15966 13.8403L8 15L5.15966 16.1597L4 19L2.84034 16.1597L0 15L2.84034 13.8403L4 11Z" fill="#5D3EBC"/>
<path d="M192 44L193.739 48.2605L198 50L193.739 51.7395L192 56L190.261 51.7395L186 50L190.261 48.2605L192 44Z" fill="#5D3EBC"/>
<path d="M224 110L225.16 112.84L228 114L225.16 115.16L224 118L222.84 115.16L220 114L222.84 112.84L224 110Z" fill="#5D3EBC"/>
<path d="M220 0L221.16 2.84034L224 4L221.16 5.15966L220 8L218.84 5.15966L216 4L218.84 2.84034L220 0Z" fill="#5D3EBC"/>
</svg>
