<svg width="63" height="66" viewBox="0 0 63 66" fill="none" xmlns="http://www.w3.org/2000/svg">
<path d="M53.0548 12.4662L48.9077 21.5369H56.6096L53.0548 12.4662Z" fill="#D1C9F2"/>
<path d="M56.6096 22.2344H46.8071V64.0989H56.6096V22.2344Z" fill="#D1C9F2"/>
<path d="M47.1571 36.5383H23.351V50.1443H47.1571V36.5383Z" fill="#FFD10D"/>
<path d="M46.1334 64.0992H24.1772C23.5064 64.0992 22.9631 63.5577 22.9631 62.8893V22.25H47.3476V62.8893C47.3476 63.5577 46.8042 64.0992 46.1334 64.0992Z" stroke="#5D3EBC" stroke-width="3" stroke-miterlimit="10"/>
<path d="M59.1833 64.0992H47.3475V22.25H60.4604V62.8265C60.4604 63.5291 59.8884 64.0992 59.1833 64.0992Z" stroke="#5D3EBC" stroke-width="3" stroke-miterlimit="10"/>
<path d="M53.7976 10.7748H28.6135C28.0274 10.7748 27.552 10.301 27.552 9.71702V3.05778C27.552 2.47377 28.0274 2 28.6135 2H53.7976C54.3836 2 54.859 2.47377 54.859 3.05778V9.71702C54.859 10.301 54.3843 10.7748 53.7976 10.7748Z" stroke="#5D3EBC" stroke-width="3" stroke-miterlimit="10"/>
<path d="M27.6921 10.7749L23.073 21.0764C22.8286 21.622 22.6508 21.8857 23.8418 22.2346H47.4141L53.9033 10.7749H27.6921Z" stroke="#5D3EBC" stroke-width="3" stroke-miterlimit="10"/>
<path d="M54.1589 10.7217L60.5011 20.8341C60.7882 21.2918 60.4584 21.8855 59.9165 21.8855H48.2073" stroke="#5D3EBC" stroke-width="3" stroke-miterlimit="10"/>
<path d="M57.6635 60.2971L51.3268 60.2971" stroke="#5D3EBC" stroke-width="3" stroke-miterlimit="10"/>
<path d="M42.2734 27.7526V31.7787" stroke="#5D3EBC" stroke-width="3" stroke-miterlimit="10"/>
<path d="M20.2604 64.2496L15.1484 13.4866H1.71661e-05V17.1352H12.1187L16.9598 64.2496H20.2604Z" fill="#FFD10D"/>
<path d="M4.62523 41.7774C4.20322 39.9018 5.62956 38.1188 7.55206 38.1188H27.9788C29.8866 38.1188 31.3098 39.8762 30.9132 41.7424L26.8021 61.0889C26.5077 62.4745 25.2842 63.4654 23.8676 63.4654H11.905C10.5019 63.4654 9.28621 62.4928 8.9782 61.1239L4.62523 41.7774Z" fill="white"/>
<path d="M8.87197 64.3808L8.87206 64.3813C8.87998 64.4347 8.93459 64.5 9.02762 64.5H27.2068C27.2999 64.5 27.3545 64.4347 27.3624 64.3813L27.3625 64.3808L32.7198 28.4C32.7288 28.3395 32.6802 28.2462 32.5642 28.2462H3.6703C3.55432 28.2462 3.50578 28.3393 3.51465 28.3998L8.87197 64.3808ZM8.87197 64.3808L3.51468 28.4L8.87197 64.3808Z" stroke="#5D3EBC" stroke-width="3" stroke-miterlimit="10"/>
<path d="M14.1402 47.4452C15.3003 47.4452 16.2408 46.5048 16.2408 45.3447C16.2408 44.1846 15.3003 43.2441 14.1402 43.2441C12.9801 43.2441 12.0397 44.1846 12.0397 45.3447C12.0397 46.5048 12.9801 47.4452 14.1402 47.4452Z" stroke="#5D3EBC" stroke-width="3" stroke-miterlimit="10"/>
<path d="M21.9507 57.5979C23.1108 57.5979 24.0512 56.6575 24.0512 55.4974C24.0512 54.3373 23.1108 53.3969 21.9507 53.3969C20.7906 53.3969 19.8502 54.3373 19.8502 55.4974C19.8502 56.6575 20.7906 57.5979 21.9507 57.5979Z" stroke="#5D3EBC" stroke-width="3" stroke-miterlimit="10"/>
</svg>
