<svg width="68" height="64" viewBox="0 0 68 64" fill="none" xmlns="http://www.w3.org/2000/svg">
<g clip-path="url(#clip0)">
<path d="M19.5023 14.2013H2.08249V43.7399H19.5023V14.2013Z" fill="#CEC6EF"/>
<path d="M14.9579 42.9821H6.62689V47.5265H14.9579V42.9821Z" fill="#FFCE0D"/>
<path d="M11.2906 61.6596H10.7486C10.0443 61.6596 9.47394 61.0893 9.47394 60.3849V50.0498C9.47394 49.3454 10.0443 48.7751 10.7486 48.7751H11.2906C11.9949 48.7751 12.5653 49.3454 12.5653 50.0498V60.3849C12.5653 61.0893 11.9949 61.6596 11.2906 61.6596Z" fill="#FFCE0D"/>
<path d="M20.0272 43.3616H3.83094C2.65622 43.3616 1.70416 42.4095 1.70416 41.2348V15.9497C1.70416 14.775 2.65622 13.8229 3.83094 13.8229H20.0261C21.2008 13.8229 22.1529 14.775 22.1529 15.9497V41.2337C22.154 42.4084 21.2019 43.3616 20.0272 43.3616Z" stroke="#5D3EB9" stroke-width="3" stroke-miterlimit="10"/>
<path d="M15.4828 47.906H8.37535C7.20062 47.906 6.24857 46.9539 6.24857 45.7792V43.3616H17.6096V45.7792C17.6096 46.9528 16.6575 47.906 15.4828 47.906Z" stroke="#5D3EB9" stroke-width="3" stroke-miterlimit="10"/>
<path d="M12.6823 62.2958H11.1758C10.1283 62.2958 9.27853 61.446 9.27853 60.3985V47.906H14.5807V60.3985C14.5796 61.4472 13.7309 62.2958 12.6823 62.2958Z" stroke="#5D3EB9" stroke-width="3" stroke-miterlimit="10"/>
<path d="M17.6096 17.9879V31.6211" stroke="#5D3EB9" stroke-width="3" stroke-miterlimit="10"/>
<path d="M17.6096 34.6511V39.9533" stroke="#5D3EB9" stroke-width="3" stroke-miterlimit="10"/>
<path d="M8.6696 1.70416H7.61416C6.85979 1.70416 6.24857 2.31539 6.24857 3.06976V13.823H10.0352V3.06976C10.0352 2.31539 9.42397 1.70416 8.6696 1.70416Z" stroke="#5D3EB9" stroke-width="3" stroke-miterlimit="10"/>
<path d="M17.0018 1.70416H15.9463C15.1919 1.70416 14.5807 2.31539 14.5807 3.06976V13.823H18.3673V3.06976C18.3673 2.31539 17.755 1.70416 17.0018 1.70416Z" stroke="#5D3EB9" stroke-width="3" stroke-miterlimit="10"/>
</g>
<g clip-path="url(#clip1)">
<path d="M53.2172 20.9071L57.1799 20.9071L57.1799 2.82423L53.2172 2.82423L53.2172 20.9071Z" fill="#FFCE0D"/>
<path d="M48.9655 46.7697L65.9726 46.7697L65.9726 28.1681L48.9655 28.1681L48.9655 46.7697Z" fill="#CEC6EF"/>
<path d="M49.7701 26.5482L59.8968 26.5482L59.8968 21.4853L49.7701 21.4853L49.7701 26.5482Z" fill="#FFCE0D"/>
<path d="M45.227 47.6476L62.2523 47.6476L62.2523 26.6715L45.227 26.6715L45.227 47.6476Z" stroke="#5D3EB9" stroke-width="3" stroke-miterlimit="10"/>
<path d="M48.7816 21.1239L59.0305 21.1239C59.7958 21.1239 60.4155 21.7436 60.4155 22.509L60.4155 26.9106L47.3955 26.9106L47.3955 22.509C47.3966 21.7436 48.0173 21.1239 48.7816 21.1239Z" stroke="#5D3EB9" stroke-width="3" stroke-miterlimit="10"/>
<path d="M43.1543 26.6715L64.3431 26.6715C65.2827 26.6715 66.0449 27.4336 66.0449 28.3732L66.0449 45.9459C66.0449 46.8855 65.2827 47.6476 64.3431 47.6476L43.1543 47.6476C42.2147 47.6476 41.4525 46.8855 41.4525 45.9459L41.4525 28.3732C41.4525 27.4336 42.2147 26.6715 43.1543 26.6715Z" stroke="#5D3EB9" stroke-width="3" stroke-miterlimit="10"/>
<path d="M52.5858 1.59442L54.9116 1.59442C55.8671 1.59442 56.642 2.36931 56.642 3.3249L56.642 21.1239L50.8553 21.1239L50.8553 3.3249C50.8553 2.36931 51.6302 1.59442 52.5858 1.59442Z" stroke="#5D3EB9" stroke-width="3" stroke-miterlimit="10"/>
<path d="M49.1919 62.3524L58.3056 62.3524C59.3111 62.3524 60.1264 61.5371 60.1264 60.5316L60.1264 47.8857L47.371 47.8857L47.371 60.5316C47.371 61.5371 48.1863 62.3524 49.1919 62.3524Z" stroke="#5D3EB9" stroke-width="3" stroke-miterlimit="10"/>
<path d="M45.3685 62.4056L62.129 62.4056C63.1345 62.4056 63.9498 61.5903 63.9498 60.5848L63.9498 47.8326L43.5476 47.8326L43.5476 60.5847C43.5476 61.5903 44.3629 62.4056 45.3685 62.4056Z" stroke="#5D3EB9" stroke-width="3" stroke-miterlimit="10"/>
</g>
<defs>
<clipPath id="clip0">
<rect width="23.8581" height="64" fill="white"/>
</clipPath>
<clipPath id="clip1">
<rect width="27.7812" height="64" fill="white" transform="translate(67.6393 64) rotate(-180)"/>
</clipPath>
</defs>
</svg>
