<svg width="155" height="184" viewBox="0 0 155 184" fill="none" xmlns="http://www.w3.org/2000/svg">
<g clip-path="url(#clip0)">
<path d="M132.299 153.997C162.565 123.607 162.565 74.3344 132.299 43.944C102.034 13.5535 52.9642 13.5535 22.6988 43.944C-7.56653 74.3344 -7.56653 123.607 22.6988 153.997C52.9642 184.388 102.034 184.388 132.299 153.997Z" fill="#5D3EBC"/>
<path d="M60.3324 15.8993L55.2976 9.46675C53.4085 7.05403 49.9408 6.6104 47.5099 8.47174C45.353 10.1238 44.6892 13.0921 45.9334 15.5122L52.876 29.0071L60.3324 15.8993Z" fill="#FF9595"/>
<path d="M98.8918 103.69L120.152 165.235L76.3205 182.24L59.4051 132.151L98.8918 103.69Z" fill="#FF9595"/>
<path d="M69.4518 140.345L27.7853 124.882C21.8888 122.694 18.8764 116.12 21.0552 110.2L58.9299 7.46939C61.1087 1.54849 67.6554 -1.47631 73.552 0.711463L115.218 16.1755C121.115 18.3633 124.127 24.937 121.949 30.858L84.0738 133.587C81.894 139.507 75.3473 142.533 69.4518 140.345Z" fill="#120E3F"/>
<path d="M114.252 37.4136L60.4772 17.4554L30.2082 99.6869L83.9832 119.645L114.252 37.4136Z" fill="#F4F4F6"/>
<path d="M81.9878 13.8266C81.818 13.7649 81.6335 13.7732 81.4689 13.8496C81.3022 13.927 81.1751 14.0641 81.1115 14.2367C81.0479 14.4104 81.0552 14.5977 81.1313 14.7641C81.2084 14.9315 81.3449 15.0591 81.5179 15.1229L100.543 22.1832C100.71 22.2408 100.902 22.2397 101.068 22.1623C101.235 22.0849 101.362 21.9478 101.426 21.7752C101.489 21.6015 101.482 21.4142 101.406 21.2479C101.329 21.0805 101.192 20.9528 101.02 20.889L81.9951 13.8276C81.992 13.8287 81.9899 13.8276 81.9878 13.8266Z" fill="white"/>
<path d="M54.1535 116.309C54.116 116.295 54.0785 116.282 54.041 116.269C52.7093 115.823 51.285 115.925 50.0294 116.555C48.7738 117.185 47.8381 118.268 47.3953 119.606C46.4794 122.365 47.9975 125.371 50.7181 126.279C53.4668 127.197 56.4479 125.701 57.3638 122.941C57.8077 121.605 57.7066 120.175 57.0783 118.914C56.4688 117.69 55.4331 116.769 54.1535 116.309Z" fill="white"/>
<path d="M111.045 46.1881L57.1596 26.1821L60.3897 17.4101L114.275 37.4161L111.045 46.1881Z" fill="#5D3EBC"/>
<path d="M67.3105 70.5413L51.1245 64.4729C49.7397 63.9539 49.0353 62.4044 49.5532 61.0139L53.1001 51.4739C53.6169 50.0834 55.16 49.3761 56.5448 49.8961L72.7309 55.9645C74.1157 56.4835 74.82 58.033 74.3022 59.4235L70.7553 68.9635C70.2374 70.354 68.6953 71.0613 67.3105 70.5413Z" fill="white"/>
<path d="M90.6737 79.7088L74.4876 73.6404C73.1028 73.1214 72.3985 71.5719 72.9163 70.1814L76.4632 60.6414C76.98 59.2509 78.5232 58.5436 79.908 59.0636L96.094 65.132C97.4788 65.651 98.1832 67.2005 97.6653 68.591L94.1184 78.131C93.6016 79.5215 92.0595 80.2288 90.6737 79.7088Z" fill="white"/>
<path d="M60.6804 88.371L44.4944 82.3026C43.1096 81.7836 42.4052 80.2341 42.9231 78.8436L46.47 69.3036C46.9868 67.9131 48.53 67.2058 49.9148 67.7258L66.1008 73.7942C67.4856 74.3132 68.19 75.8627 67.6721 77.2532L64.1252 86.7932C63.6073 88.1837 62.0652 88.891 60.6804 88.371Z" fill="white"/>
<path d="M84.177 97.1806L67.9909 91.1122C66.6061 90.5933 65.9018 89.0437 66.4196 87.6532L69.9665 78.1132C70.4833 76.7227 72.0265 76.0154 73.4113 76.5354L89.5973 82.6039C90.9821 83.1228 91.6865 84.6724 91.1686 86.0629L87.6217 95.6028C87.1049 96.9934 85.5618 97.7006 84.177 97.1806Z" fill="white"/>
<path d="M53.967 105.61L37.781 99.5411C36.3962 99.0221 35.6918 97.4726 36.2097 96.0821L39.7565 86.5421C40.2734 85.1516 41.8165 84.4443 43.2013 84.9643L59.3874 91.0327C60.7721 91.5517 61.4765 93.1012 60.9586 94.4917L57.4118 104.032C56.8939 105.422 55.3518 106.128 53.967 105.61Z" fill="white"/>
<path d="M77.4635 114.419L61.2775 108.351C59.8927 107.832 59.1883 106.282 59.7062 104.892L63.2531 95.3518C63.7699 93.9613 65.3131 93.254 66.6978 93.774L82.8839 99.8424C84.2687 100.361 84.973 101.911 84.4552 103.301L80.9083 112.841C80.3904 114.232 78.8483 114.938 77.4635 114.419Z" fill="white"/>
<path d="M73.726 53.2892L57.5399 47.2207C56.1552 46.7018 55.4508 45.1523 55.9686 43.7617L59.5155 34.2218C60.0323 32.8312 61.5755 32.124 62.9603 32.644L79.1463 38.7124C80.5311 39.2313 81.2355 40.7809 80.7176 42.1714L77.1707 51.7114C76.6529 53.1019 75.1108 53.8081 73.726 53.2892Z" fill="white"/>
<path d="M97.2225 62.0989L81.0365 56.0304C79.6517 55.5115 78.9473 53.9619 79.4652 52.5714L83.012 43.0314C83.5289 41.6409 85.072 40.9336 86.4568 41.4536L102.643 47.5221C104.028 48.041 104.732 49.5906 104.214 50.9811L100.667 60.5211C100.149 61.9116 98.6073 62.6189 97.2225 62.0989Z" fill="white"/>
<path d="M105.363 122.424L114.468 104.125C116.827 99.3831 118.488 94.3222 119.398 89.1002L124.986 46.2665C125.168 45.2213 124.334 44.287 123.278 44.3403C119.241 44.5412 110.116 48.7023 109.312 65.1279L103.832 80.0572C103.832 80.0572 80.8312 102.101 93.1484 127.285L105.363 122.424Z" fill="#FF9595"/>
<path d="M53.7753 38.364L48.58 35.2733C48.58 35.2733 46.0115 33.9529 43.1503 37.98C40.289 42.0061 44.211 47.6278 44.211 47.6278L44.8028 45.9684L47.1535 47.7502C49.5251 49.5477 52.8719 49.2265 54.8621 47.0104C57.2044 44.4 56.6907 40.309 53.7753 38.364Z" fill="#FF9595"/>
<path d="M49.3313 58.5499L41.7551 53.601C41.7551 53.601 39.1866 52.2806 36.3253 56.3077C33.4641 60.3338 37.3861 65.9555 37.3861 65.9555L37.9768 64.2961L42.7085 67.935C45.08 69.7325 48.4268 69.4113 50.417 67.1953C52.7604 64.5859 52.2467 60.4939 49.3313 58.5499Z" fill="#FF9595"/>
<path d="M40.2619 74.5705L32.123 71.6462C32.123 71.6462 28.9992 70.9797 27.8739 75.4107C27.8739 75.4107 26.4849 78.288 31.0279 83.3865L31.9501 80.798L37.3496 82.7389C39.6451 83.5633 42.1656 82.3182 42.9158 79.9882C43.6348 77.7596 42.4594 75.3605 40.2619 74.5705Z" fill="#FF9595"/>
<path d="M132.247 183.499L117.661 141.838C116.911 139.689 114.586 138.538 112.431 139.251L63.8439 155.307C61.6641 156.027 60.4762 158.383 61.1879 160.573L68.2619 183.499H132.247Z" fill="#FFD10D"/>
<path d="M62 184L137 184" stroke="#120E3F" stroke-miterlimit="10" stroke-linecap="round" stroke-linejoin="round"/>
<path d="M9 155L10.1597 157.84L13 159L10.1597 160.16L9 163L7.84034 160.16L5 159L7.84034 157.84L9 155Z" fill="#5D3EBC"/>
<path d="M151 6L152.16 8.84034L155 10L152.16 11.1597L151 14L149.84 11.1597L147 10L149.84 8.84034L151 6Z" fill="#5D3EBC"/>
</g>
<defs>
<clipPath id="clip0">
<rect width="155" height="184" fill="white"/>
</clipPath>
</defs>
</svg>
