<svg width="66" height="68" viewBox="0 0 66 68" fill="none" xmlns="http://www.w3.org/2000/svg">
<path d="M42 39.6C42 42.6033 40.9109 45.3334 39.044 47.4959C37.8672 47.8326 36.6214 48 35.3327 48C27.9772 48 22 42.3512 22 35.4C22 32.3967 23.0891 29.6666 24.956 27.5041C26.1328 27.1674 27.3786 27 28.6673 27C36.0228 27 42 32.6488 42 39.6Z" fill="#FFD10D"/>
<path d="M60.6021 21.4867L49.8605 14.6537C49.3802 14.3487 48.9347 13.9885 48.535 13.5809L39.3495 4.23119C36.4268 1.25627 31.6871 1.25627 28.7643 4.23119L19.7179 13.4387C19.2266 13.9396 18.6689 14.3677 18.0606 14.7105L5.85131 21.6146C2.34871 23.5958 0.999489 28.0321 2.79107 31.68L7.87197 42.0235C8.09316 42.4722 8.26852 42.9414 8.39807 43.4265L12.7886 59.8114C13.8392 63.7343 17.7336 66.1262 21.6327 65.243L32.3301 62.8227C33.4645 62.5667 34.6415 62.5825 35.7695 62.8685L47.1794 65.7723C49.7294 66.4216 53.1405 66.3911 55 64.5L58.0853 61.5C59.7505 59.8048 59.7126 56.6501 59.3793 54.2771L58.0853 45.0537C57.8705 43.5197 58.1201 41.9556 58.801 40.57L63.329 31.3514C65.0558 27.8409 63.874 23.5674 60.6021 21.4867Z" stroke="#5D3EBC" stroke-width="3" stroke-miterlimit="10"/>
<path d="M45 36C45 41.0053 41.4932 45.2398 36.7011 46.5599C35.6861 46.8538 34.6116 47 33.5 47C27.1556 47 22 42.0685 22 36C22 33.3781 22.9394 30.9947 24.5497 29.1067C26.6393 26.6141 29.8774 25 33.5 25C39.8444 25 45 29.9315 45 36Z" stroke="#5D3EBC" stroke-width="3" stroke-miterlimit="10"/>
<path d="M11 27H14.3377" stroke="#5D3EBC" stroke-width="3" stroke-miterlimit="10"/>
<path d="M53 58L47 58" stroke="#5D3EBC" stroke-width="3" stroke-miterlimit="10"/>
</svg>
